<?xml version="1.0" encoding="utf-8"?>
<!-- Generator: Adobe Illustrator 26.0.1, SVG Export Plug-In . SVG Version: 6.00 Build 0)  -->
<svg version="1.1" xmlns="http://www.w3.org/2000/svg" xmlns:xlink="http://www.w3.org/1999/xlink" x="0px" y="0px"
	 viewBox="0 0 900 500" style="enable-background:new 0 0 900 500;" xml:space="preserve">
<style type="text/css">
	.st0{display:none;}
	.st1{display:inline;fill:#E1E5FF;}
	.st2{fill:none;stroke:#C47D41;stroke-linecap:round;stroke-linejoin:round;stroke-miterlimit:10;}
	.st3{fill:#A9B3FF;}
	.st4{fill:#BEC4ED;}
	.st5{fill:#F969A4;}
	.st6{fill:#EAB9CF;}
	.st7{fill:#FFFFFF;}
	.st8{fill:#6265CE;}
	.st9{fill:#3CAA9A;}
	.st10{fill:#A9D8CF;}
	.st11{fill:#70D8C8;}
	.st12{fill:#4D52A8;}
	.st13{fill:#1D8978;}
	.st14{fill:#C4356F;}
	.st15{fill:#FFC655;}
	.st16{fill:#84153D;}
	.st17{fill:#C695AE;}
	.st18{fill:#EFE2CA;}
	.st19{fill:#383D84;}
	.st20{fill:#252A5E;}
</style>
<g id="BACKGROUND" class="st0">
	<rect class="st1" width="900" height="500"/>
</g>
<g id="OBJECTS">
	<g>
		<g>
			<path class="st2" d="M127.7,145c7.6-9.1,18.3-15.4,30-17.6c11.6-2.2,24-0.2,34.3,5.6c4.5,2.5,8.7,5.8,11.4,10.2
				c2.6,4.4,3.5,10.1,1.3,14.8c-2.2,4.7-7.7,7.8-12.7,6.4c-6.2-1.8-8.8-10.1-6.1-15.9c2.8-5.8,9.4-9,15.8-9.4
				c6.4-0.3,12.7,1.7,18.7,4.1c22.5,8.8,43.6,21.9,67.3,26.1c6.2,1.1,12.8,1.6,18.5-1.2c6.5-3.2,10.5-10.1,12.1-17.1
				c2.6-11.3-0.2-23.7-7.5-32.7c-7.2-9-18.7-14.6-30.2-14.5c-4.5,0-9.2,0.9-13,3.3s-6.6,6.7-6.6,11.2c0,4.5,3.4,9,7.9,9.6
				c3.3,0.4,6.5-1.3,8.7-3.8c2.1-2.5,3.3-5.7,3.8-9c2.5-13.9-5-29-17.6-35.3c-12.6-6.3-29.3-3.3-38.8,7.1"/>
			<path class="st2" d="M384.7,200.6c7.4-1.4,14.9-2.8,22.4-2.4c7.5,0.4,15.2,2.8,20.5,8.1c3.8,3.7,6.3,9.1,5.4,14.3
				c-0.9,5.2-6.1,9.7-11.3,8.8c-4.7-0.8-7.9-5.3-9.5-9.8c-5.9-15.8,1.1-34.6,13.9-45.5s30.5-15,47.4-14.5s33.3,5.1,49.6,9.7
				c7.2,2,14.5,4.1,21.9,4.8c7.5,0.7,15.2,0,21.9-3.3c6.7-3.3,12.3-9.4,13.8-16.8c1.5-7.3-1.8-15.7-8.5-19.2
				c-6.6-3.5-16.1-0.7-19,6.2c-3.3,7.8,2.8,17,10.6,20.3c7.8,3.3,16.7,2.3,25.1,1.2"/>
			<path class="st2" d="M627.6,157.1c4-11,14.9-18.8,26.5-19.9c11.6-1.1,23.4,4,31.3,12.5c7.9,8.6,12.1,20.2,12.5,31.9
				c0.3,7.5-1.1,15.3-5.6,21.3c-4.3,5.8-11.7,9-18.8,7.3c-7.3-1.8-12-8.1-14.8-14.7c-2.4-5.7-3.9-12-2.8-18.1
				c3.8-21,34.7-20.6,49.6-13.3c11.8,5.8,20.6,17.2,23.1,30c0.5,2.6,0.8,5.3-0.1,7.8c-0.9,2.5-3.3,4.6-5.9,4.5
				c-2.7-0.1-4.8-2.4-6.2-4.7c-4.2-6.8-5.3-15.4-3-23.1c2.3-7.7,7.9-14.3,15-17.7c6.3-3.1,13.5-3.7,20.5-4.6c7-0.9,14.2-2.1,20-6.2
				c5.8-4.1,9.6-11.7,7.2-18.3c-1.9-5.2-7.2-8.6-12.6-10.2c-4-1.2-8.4-1.5-12.2,0.1c-3.8,1.7-6.8,5.7-6.1,9.9
				c0.6,4.1,5.7,7.2,9.3,5.2c3.8-6.3,0.9-15.2-5.2-19.2s-14.4-3.6-21-0.4c-2.2,1.1-4.3,2.5-6,4.3c-4.3,4.6-5.7,11.7-3.5,17.6
				c2.3,5.9,8.1,10.2,14.4,10.7"/>
			<path class="st2" d="M795.6,302.9c4.9,4,5.2,12.1,1.7,17.4c-3.5,5.3-9.8,8.3-16.1,9.3c-6.3,1.1-12.7,0.5-19.1,0.3
				c-6.4-0.2-13,0.1-18.8,2.7c-8.6,3.8-14.6,12.6-15.1,22c-0.4,9.3,4.8,18.7,13,23.2c4.7,2.6,10.4,3.6,15.4,1.8
				c5-1.9,8.9-7,8.4-12.3c-0.6-5.8-6-10.1-11.5-11.8c-8.6-2.6-18.6-0.5-25.3,5.5c-6.8,6.1-10.1,15.2-16.5,21.8
				c-8.5,8.8-22.3,11.8-33.7,7.4"/>
			<path class="st2" d="M608.8,368.3c2.3-4.9,0.1-11-3.8-14.7c-3.9-3.7-9.2-5.6-14.4-7.1c-10.1-2.9-20.7-4.7-31.1-3.4
				c-10.4,1.3-20.7,5.9-27.2,14.2c-4.2,5.3-6.7,12.8-3.8,18.9c2.4,5,7.7,7.9,13,9.4c5.6,1.5,12.2,1.6,16.6-2.1
				c4.2-3.5,5.5-9.5,4.9-15c-1-9-6.6-17.4-14.6-21.7c-8-4.3-18.1-4.4-26.1-0.2c-2.6,1.4-5.1,3.2-6.5,5.9c-1.3,2.7-1.2,6.2,1,8.3
				c2.6,2.5,7.5,1.7,9.6-1.3c2.1-3,1.7-7.3-0.4-10.3c-2.1-3-5.6-4.8-9.1-5.6c-6.3-1.4-13.3,0.2-18.1,4.4c-4.8,4.3-7.2,11.2-5.7,17.5
				c1.5,6.3,7,11.5,13.4,12.3"/>
			<path class="st2" d="M96.2,331.6c-5.2,6.9-9.1,14.9-10.5,23.4c-1.3,8.5,0.2,17.6,5,24.8c7.2,10.6,20.6,15.4,33.4,16.7
				c6.7,0.6,13.5,0.5,19.9-1.5c6.4-2,12.3-6,15.8-11.7c5.4-8.8,3.7-21.2-3.7-28.4c-7.4-7.1-19.9-8.2-28.5-2.5
				c-8.6,5.7-12.3,17.7-8.6,27.3c3.2,8.1,10.7,13.8,18.4,17.8c8.4,4.4,17.6,7.4,27.1,7.3c9.4-0.1,19.1-3.7,25.3-10.8
				c4.9-5.7,7.3-13.1,8.6-20.6c1.2-7.1,1.4-14.8-2.2-21c-3.6-6.2-12.1-10-18.3-6.4c-5.9,3.4-7.1,12-3.9,18c3.2,6,9.7,9.5,16.3,11.2
				c5.4,1.4,11.2,1.7,16.4-0.3c7-2.6,12.2-9.1,14.1-16.3c1.9-7.2,0.8-15-2.1-21.8"/>
			<path class="st2" d="M129.1,148.4c2.2,14-2.5,28.8-12.4,38.9c-3.5,3.5-7.6,6.6-12.4,7.9c-4.8,1.4-10.2,0.9-14.3-1.9
				c-4.1-2.8-6.4-8.3-5-13c1.5-4.8,7.1-8,11.7-6.3c2.8,1.1,4.9,3.7,5.8,6.6c0.9,2.9,0.8,6,0.1,9c-1.2,5.4-3.9,10.4-6.7,15.2
				s-5.8,9.6-7.5,14.8c-1.8,5.3-2.2,11.2,0,16.3c2.2,5.1,7.5,9,13.1,8.5"/>
		</g>
		<g>
			<g>
				<g>
					<path class="st3" d="M636.2,372.7c3.2,4.1,5.6,8.8,6.4,13.9c1.2,7.8-1.5,15.6-4.2,23.1c-6.4-5.8-11.3-13.3-13.9-21.6
						c-1.1-3.5-1.8-7.1-2.1-10.7c-0.2-3-0.8-7.3,0.6-10.1C626.6,360,633.7,369.5,636.2,372.7z"/>
					<path class="st4" d="M624.2,365.6c5.2,14.2,9.7,28.7,13.5,43.3c0.2,0.2,0.5,0.5,0.7,0.7c0.1-0.2,0.1-0.3,0.2-0.5
						c-3.8-14.9-8.4-29.6-13.7-44.1C624.6,365.3,624.4,365.4,624.2,365.6z"/>
				</g>
				<g>
					<path class="st3" d="M572.1,358.9c-0.4,1.5,0.6,3,2.1,3.6c0.4,0.2,0.9,0.2,1.3,0.2l-9.1,2.9c-1.8,0.6-2.1,3-0.5,4
						c2.5,1.5,5.8,1.9,8.5,0.5c-4.6,2-9,4.6-13,7.8c-1.5,1.2-3.2,3.1-2.3,4.9c0.3,0.7,1,1.2,1.8,1.4c1.5,0.4,3-0.1,4.5-0.6
						c4.4-1.5,8.8-3,13.1-4.6c-1.8,1.2-3.6,2.6-4.6,4.5c-1.3,2.7-0.3,7,4.1,6.2c1-0.2,1.9-0.6,2.7-1.2l12.7-9.2
						c-1.8,2.4-3.6,4.9-3.5,8c0,1.7,0.8,3.4,2.3,4.3c2.9,1.7,6.1-0.6,8.4-2.8c4.4-4.3,8.3-9.1,11.7-14.2c2.3-3.5,7.3-9.7,7.2-14
						c-0.1-4.7-9-5.3-12.5-5.9c-10.4-1.8-21.2-1.3-31.4,1.6C574.2,356.7,572.5,357.4,572.1,358.9z"/>
					<path class="st4" d="M619.5,360.7c-4.9,0.7-9.8,1.6-14.6,2.8c-6.2-4.6-13.7-5.6-19-5.6c-4.7,0-9.4,0.6-13.9,1.5
						c0,0.3,0,0.6,0,0.8c4.6-0.8,9.2-1.5,13.9-1.5c5,0,12,1,17.9,5.1c-5.4,1.3-10.6,2.9-15.8,4.8c0,0-0.1-0.1-0.1-0.1
						c-6.9-3.7-15.6-4.2-22.9-1.4c-0.1,0.3-0.1,0.6-0.1,0.9c7.1-2.8,15.4-2.5,22.2,1c-9.7,3.6-19.1,8-28,13.4c0,0.2,0.1,0.3,0.2,0.5
						c0,0.1,0.1,0.2,0.2,0.3c9.2-5.6,18.9-10.2,29-13.8c0.3,4.6-2.1,9.6-6.4,13.4c-2.4,2.1-5.2,3.8-8.1,5.2c0.1,0.3,0.3,0.5,0.4,0.7
						c2.9-1.4,5.7-3.1,8.2-5.3c4.5-4,7-9.4,6.6-14.3c5.2-1.8,10.4-3.4,15.7-4.6c0.1,0,0.1,0,0.2,0c1-0.2,2-0.5,3.1-0.7
						c-4.1,10-9.6,19.3-16.3,27.7c0.2,0.1,0.3,0.2,0.5,0.3c0.1,0,0.1,0.1,0.2,0.1c6.9-8.6,12.5-18,16.6-28.3
						c3.4-0.7,6.9-1.3,10.4-1.8C619.5,361.3,619.5,361,619.5,360.7z"/>
				</g>
				<g>
					<path class="st5" d="M645.9,353.8c-1.3-2.5-3.9-4.1-6.6-4.5c1.7-2.1,1.9-5.2,1-7.7c-1-2.5-2.9-4.6-5.1-6.2
						c-3-2.2-6.9-3.5-10.4-2.2c-2.2,0.8-3.8,2.6-4.9,4.7c-1.7,0-3.3,0.2-4.8,0.9c-3,1.4-5.2,4.9-4.5,8.1c-0.4-0.7-1.2-1.2-2.1-1.3
						c-1.1-0.1-2.1,0.4-3,1.1c-2.4,1.6-4.2,4.1-4.7,6.9c-0.5,2.8,0.4,5.9,2.6,7.8c2.2,1.9,5.5,2.3,8,0.8c-1.3,1.4-2,3.4-1.8,5.4
						c0.2,1.9,1,3.8,2.3,5.3c1.9,2.2,4.8,3.7,7.6,3.2c2.8-0.5,5.3-3.2,4.9-6.1c1.8,3.1,4,6.4,7.5,7.1c3.5,0.7,7.1-1.8,8.2-5.2
						c1.1-3.4-0.2-7.2-2.6-9.8c2.1,1.9,5.6,1.6,7.5-0.4C646.8,359.5,647.1,356.2,645.9,353.8z"/>
					<g>
						<path class="st6" d="M620.7,368.6c-2.2,0-4.3-1.1-5.5-2.8c-1.3-1.8-1.6-4.3-0.8-6.4c0.1-0.3,0.5-0.5,0.8-0.4
							c0.3,0.1,0.5,0.5,0.4,0.8c-0.7,1.7-0.4,3.7,0.7,5.2c1.1,1.5,2.9,2.4,4.7,2.3c1,0,2.2-0.4,2.8-1.4c0.2-0.3,0.5-0.4,0.8-0.2
							c0.3,0.2,0.4,0.5,0.2,0.8c-0.7,1.2-2.1,2-3.8,2C620.9,368.6,620.8,368.6,620.7,368.6z"/>
						<path class="st6" d="M626.9,363.8c-1.2,0-2.5-0.3-3.6-0.9c-0.3-0.2-0.4-0.5-0.2-0.8c0.2-0.3,0.5-0.4,0.8-0.2
							c1.2,0.7,2.7,0.9,4.1,0.7c1.4-0.3,2.7-1,3.6-2.1c0.4-0.5,0.7-1,0.8-1.5c0.1-0.5,0-1.1-0.2-1.4c-0.2-0.3-0.1-0.7,0.2-0.8
							c0.3-0.2,0.7-0.1,0.8,0.2c0.4,0.7,0.6,1.5,0.4,2.4c-0.1,0.7-0.5,1.3-1,2c-1.1,1.3-2.6,2.2-4.3,2.6
							C627.9,363.8,627.4,363.8,626.9,363.8z"/>
						<path class="st6" d="M634.7,349.8c-0.1,0-0.3,0-0.4-0.1c-0.3-0.2-0.3-0.6-0.1-0.9c0.8-1,1.3-2.3,1.4-3.6
							c0.1-1.3-0.3-2.6-1-3.7c-0.7-1.1-1.8-2.1-3.1-2.7c-1.2-0.5-2.7-0.8-4.1-0.7c-1.2,0.1-2.3,0.4-3.2,0.9c-1,0.6-1.7,1.5-2,2.4
							c-0.1,0.3-0.4,0.5-0.8,0.4c-0.3-0.1-0.5-0.4-0.4-0.8c0.4-1.2,1.3-2.4,2.5-3.1c1-0.6,2.3-1,3.7-1.1c1.7-0.1,3.3,0.2,4.7,0.8
							c1.5,0.7,2.8,1.8,3.7,3.1c0.8,1.3,1.2,2.9,1.1,4.4c-0.1,1.5-0.7,3.1-1.6,4.3C635.1,349.7,634.9,349.8,634.7,349.8z"/>
						<path class="st6" d="M615.5,350.5c-0.2,0-0.5-0.1-0.6-0.4c-0.6-1.5-0.4-3.3,0.6-4.6c1-1.3,2.6-2,4.3-1.9
							c0.3,0,0.6,0.3,0.5,0.7c0,0.3-0.3,0.6-0.7,0.5c-1.2-0.1-2.4,0.4-3.1,1.4c-0.7,1-0.9,2.3-0.4,3.4c0.1,0.3,0,0.7-0.3,0.8
							C615.6,350.5,615.6,350.5,615.5,350.5z"/>
						<path class="st6" d="M608.7,358.6C608.6,358.6,608.6,358.6,608.7,358.6c-1.7-0.3-3.2-1.3-3.9-2.6c-0.8-1.5-0.5-3.4,0.6-4.6
							c0.9-1,2.3-1.3,3.6-1.5c0.3,0,0.6,0.2,0.7,0.5c0,0.3-0.2,0.6-0.5,0.7c-1.1,0.2-2.2,0.4-2.9,1.1c-0.8,0.8-0.9,2.1-0.4,3.2
							c0.5,1,1.6,1.7,2.9,1.9c0.3,0.1,0.6,0.4,0.5,0.7C609.2,358.4,609,358.6,608.7,358.6z"/>
						<path class="st6" d="M625.8,357.8C625.7,357.8,625.7,357.8,625.8,357.8c-0.4,0-0.7-0.3-0.7-0.6c0-0.3,0.3-0.6,0.6-0.6
							c0.8,0,1.8-0.5,2.4-1.3c0.5-0.7,0.8-1.7,0.8-2.9c0-1.1-0.2-2.2-0.4-3.3c-0.1-0.3,0.2-0.7,0.5-0.7c0.3-0.1,0.7,0.2,0.7,0.5
							c0.2,1.1,0.4,2.3,0.4,3.5c0,1.4-0.4,2.6-1,3.6C628.3,357.1,627,357.8,625.8,357.8z"/>
						<path class="st6" d="M631.3,371.7c-0.2,0-0.3,0-0.5,0c-1.1-0.1-2.5-0.7-2.8-2c-0.1-0.3,0.1-0.7,0.4-0.7
							c0.3-0.1,0.7,0.1,0.7,0.4c0.2,0.6,1,1,1.7,1.1c1.1,0.1,2.3-0.2,3.2-1c0.9-0.7,1.5-1.8,1.7-2.9c0-0.3,0.4-0.6,0.7-0.5
							c0.3,0,0.6,0.4,0.5,0.7c-0.2,1.4-1,2.8-2.1,3.7C633.9,371.3,632.6,371.7,631.3,371.7z"/>
						<path class="st6" d="M637.4,359.6c-0.3,0-0.5-0.2-0.6-0.5c-0.1-0.3,0.1-0.7,0.5-0.7c1-0.2,1.8-1.1,1.9-2.1
							c0.1-1-0.5-2-1.5-2.4c-0.3-0.1-0.5-0.5-0.3-0.8c0.1-0.3,0.5-0.5,0.8-0.3c1.4,0.6,2.3,2.1,2.2,3.7c-0.1,1.5-1.3,2.9-2.9,3.2
							C637.5,359.6,637.5,359.6,637.4,359.6z"/>
					</g>
					<path class="st7" d="M621.1,351.7c-2.4,0-2.4,3.7,0,3.7C623.5,355.4,623.5,351.7,621.1,351.7z"/>
					<path class="st7" d="M623.3,346.7c-2.4,0-2.4,3.7,0,3.7C625.7,350.4,625.7,346.7,623.3,346.7z"/>
					<path class="st7" d="M625.8,350.6c-2.4,0-2.4,3.7,0,3.7C628.2,354.3,628.2,350.6,625.8,350.6z"/>
				</g>
			</g>
			<g>
				<g>
					<g>
						<path class="st3" d="M366.2,94c-1.1-1.1-1.6-2.7-1.5-4.3c0.1-2.6,1.8-5,4.2-6.1c2.4-1,5.3-0.5,7.3,1.2c2.5,2.2,3.2,6,2.1,9
							c-1.1,2.9-3.9,2.7-6.4,2.2C369.9,95.8,367.7,95.5,366.2,94z"/>
						<path class="st3" d="M385.7,96.3c-1.1-2.3-1.2-5.3,0.5-7.1c0.9-1,2.1-1.5,3.4-1.9c0.9-0.3,1.8-0.5,2.7-0.4
							c1.8,0.2,3.2,1.6,3.9,3.3c0.6,1.7,0.5,3.5-0.1,5.2c-0.4,1.3-1,2.5-1.8,3.6c-0.7,0.9-1.7,2.4-2.9,2.5c-1.2,0.2-2.3-1.1-3-1.8
							C387.3,98.7,386.4,97.6,385.7,96.3z"/>
						<path class="st3" d="M376.4,106.8c-2-2.2-5.3-3.5-8.2-2.5c-2.3,0.8-3.9,3-4.7,5.4c-0.6,1.6-0.8,3.5-0.2,5.1
							c0.6,1.7,2.1,3.1,3.8,3.9c2.2,1,4.8,1.2,7.1,0.6c1.8-0.5,5.7-2.5,5.6-4.8C379.6,111.9,378.1,108.7,376.4,106.8z"/>
						<path class="st3" d="M398.6,114.8c-1.2-1.5-2-3.2-2.1-5c-0.2-2.6,1.2-5.2,3.4-6.5c2.2-1.3,5.2-1.2,7.3,0.2
							c1.8,1.2,3,3.3,3.2,5.4c0.3,2.3-0.4,4.7-1.9,6.4c-1.3,1.6-3.2,2.5-5.2,2.9C401.5,118.6,399.7,116.1,398.6,114.8z"/>
						<path class="st3" d="M383.6,132.3c-0.7-0.9-1.6-1.8-2.6-2.5c-1-0.7-2.2-1.1-3.4-1c-1.4,0.1-2.6,0.8-3.7,1.7
							c-2,1.7-3.3,4.3-2.8,6.9c0.3,1.5,1.3,2.9,2.5,3.9c1.2,1,2.7,1.6,4.2,2c2.7,0.8,6.4,1.1,8.7-0.8c1.9-1.5,0.4-4.2-0.4-5.9
							C385.6,135.1,384.7,133.6,383.6,132.3z"/>
						<path class="st3" d="M406.4,136.3c-0.2-2.2,0.1-4.5,1.3-6.4c1.1-1.9,3.1-3.3,5.3-3.4c2.2-0.1,4.4,1.3,5.5,3.3
							c1,2,1,4.4,0.1,6.5c-0.9,2.1-2.6,3.7-4.6,4.7c-1,0.5-2.1,0.9-3.2,1.1c-0.7,0.2-2.1,0.6-2.8,0.1c-0.7-0.4-0.8-1.8-1-2.5
							C406.7,138.6,406.5,137.4,406.4,136.3z"/>
						<path class="st3" d="M406.6,156c-0.1-1.7,0-3.5,0.7-5c0.9-1.8,2.8-3.1,4.8-3.3c2-0.2,4.1,0.8,5.3,2.4c1.2,1.6,1.4,3.9,0.7,5.8
							c-0.8,1.9-2.5,3.2-4.2,4.3c-1.1,0.7-2.3,1.3-3.5,1.6c-1,0.3-3.4,0.6-3.7-0.8c-0.2-0.7,0.1-1.5,0-2.2
							C406.8,157.8,406.7,156.9,406.6,156z"/>
						<path class="st3" d="M389.3,153.5c-0.6-2.4-2.4-4.6-4.9-4.9c-1.9-0.3-3.8,0.7-5.4,1.7c-1.1,0.7-2.3,1.6-2.6,2.9
							c-0.2,1,0.2,2,0.7,2.8c1.1,2,2.9,3.5,5,4.4c1.2,0.5,2.5,0.8,3.8,0.8c0.8,0,2.4,0.1,3-0.5c0.7-0.6,0.5-2.3,0.6-3.2
							C389.7,156.2,389.7,154.8,389.3,153.5z"/>
					</g>
					<path class="st8" d="M412.8,152.6c-0.3-0.1-0.5,0-0.7,0.2c-2.7,5.8-7.2,10.8-12.7,14.1c0.8-5.2,1.1-10.5,0.9-15.8
						c6.3-5.1,10.9-12.3,12.8-20.2c0.1-0.3-0.1-0.5-0.4-0.6c-0.3-0.1-0.5,0.1-0.6,0.4c-1.8,7.5-6,14.3-11.9,19.2
						c-0.3-6.3-1.2-12.6-2.9-18.8c-0.1-0.2-0.1-0.4-0.2-0.7c5.6-6.7,8-15.9,6.5-24.5c0-0.3-0.3-0.5-0.6-0.4c-0.3,0-0.5,0.3-0.4,0.6
						c1.5,8.1-0.7,16.7-5.8,23.1c-1.7-6.1-4.1-11.9-7.1-17.5c1.8-5.4,2.3-11.3,1.6-17.5c0-0.3-0.3-0.5-0.6-0.4
						c-0.3,0-0.5,0.3-0.4,0.6c0.6,5.7,0.2,11.2-1.3,16.2c-4.2-7.6-9.5-14.5-15.7-20.6c-0.2-0.2-0.5-0.2-0.7,0
						c-0.2,0.2-0.2,0.5,0,0.7c6.4,6.3,11.8,13.5,16,21.3c0,0.1,0,0.1,0.1,0.1c0.7,1.3,1.4,2.7,2,4c-7.2,0-14.4-2.1-20.5-6
						c-0.2-0.1-0.5-0.1-0.7,0.2c-0.1,0.2-0.1,0.5,0.2,0.7c5.4,3.4,11.7,5.5,18,6c1.2,0.1,2.3,0.1,3.5,0.1c2.1,4.6,3.8,9.3,5.1,14.2
						c1,3.8,1.7,7.6,2.2,11.4c-7.9-1.1-15.4-4.1-21.8-8.9c-0.2-0.2-0.5-0.1-0.7,0.1c-0.2,0.2-0.1,0.5,0.1,0.7
						c6.6,4.9,14.3,8.1,22.5,9.1c0,0,0,0,0,0c0,0,0,0,0,0c0.8,7,0.8,14.1-0.1,21.1c-6.2-2.1-11.8-6.1-15.7-11.4
						c-0.2-0.2-0.5-0.3-0.7-0.1c-0.2,0.2-0.3,0.5-0.1,0.7c4.1,5.5,9.9,9.7,16.4,11.9c-0.6,4.2-1.4,8.4-2.6,12.5
						c-0.1,0.3,0.1,0.5,0.3,0.6c0,0,0.1,0,0.1,0c0.2,0,0.5-0.1,0.5-0.4c1-3.4,1.7-6.9,2.3-10.4c6-3.4,10.9-8.7,13.9-15
						C413.1,153,413,152.7,412.8,152.6z"/>
				</g>
				<g>
					<path class="st9" d="M372.3,182c-3.3-4.4-5.8-9.5-6.5-14.9c-1.1-8.3,2-16.6,5-24.4c6.7,6.3,11.7,14.4,14.2,23.2
						c1.1,3.7,1.7,7.6,1.9,11.4c0.2,3.2,0.7,7.8-0.9,10.7C382.1,195.7,374.8,185.4,372.3,182z"/>
					<path class="st10" d="M384.9,189.8c-5.2-15.2-9.6-30.7-13.3-46.3c-0.3-0.2-0.5-0.5-0.8-0.7c-0.1,0.2-0.1,0.3-0.2,0.5
						c3.7,15.9,8.3,31.7,13.5,47.1C384.4,190.2,384.6,190,384.9,189.8z"/>
				</g>
				<g>
					<path class="st11" d="M365.5,205.7c-5.9-2.3-11.5-5.7-15.6-10.5c-6.3-7.4-8.3-17.4-10.2-26.9c10.4,2,20.3,6.8,28.3,13.9
						c3.4,3,6.4,6.3,9,9.9c2.2,3,5.4,7.2,5.8,11C383.6,213,370.1,207.5,365.5,205.7z"/>
					<path class="st10" d="M382.6,205.5c-14.5-11.6-28.4-24-41.7-36.9c-0.4-0.1-0.8-0.2-1.2-0.3c0,0.2,0.1,0.4,0.1,0.6
						c13.5,13.2,27.7,25.8,42.4,37.6C382.4,206.2,382.5,205.9,382.6,205.5z"/>
				</g>
				<g>
					<path class="st5" d="M384.4,179.7c-0.1-1.2,0-2.4,0.4-3.5c0.4-1.1,1.3-2.1,2.5-2.3c1.6-0.3,3.2,0.9,4.9,0.7
						c1.4-0.2,2.5-1.5,3.2-2.7c0.7-1.2,1.3-2.6,2.5-3.5c1.1-0.9,3.1-0.9,3.8,0.3c0.7,1.2-0.1,2.9,0.5,4.2c0.5,1,1.8,1.5,2.6,2.3
						c0.9,0.9,1.1,2.3,1,3.6c-0.2,1.3-0.8,2.4-1.3,3.6c-1.3,2.6-2.8,5.2-4.3,7.7c-0.8,1.3-1.6,2.5-2.4,3.8c-0.7,1.1-1.6,3-2.6,3.8
						c-1,0.8-0.9,0.2-1.7-0.7c-0.8-0.9-1.8-1.6-2.6-2.5c-1.7-1.9-3.1-4-4.2-6.3C385.3,185.4,384.6,182.6,384.4,179.7z"/>
					<path class="st5" d="M378.7,182.8c-1.5-0.6-3.1-1.1-4.7-0.7c-1.6,0.3-3,1.7-2.9,3.3c0.2,1.9,2.5,3.4,2,5.3
						c-0.3,1.4-1.9,1.9-2.8,3c-0.9,1-1,2.6-0.4,3.8c0.6,1.2,2,1.9,3.4,1.8c-0.9,1-1.9,2-2.4,3.3c-0.5,1.3-0.3,2.9,0.8,3.8
						c0.8,0.6,2,0.7,3,0.6c5.5-0.3,10.9-2.8,14.8-6.6c1.5-1.4,4.3-4,3.9-6.3c-0.4-2.2-3.7-4.4-5.3-5.7
						C385.4,186.1,382.1,184.2,378.7,182.8z"/>
					<path class="st5" d="M380.4,210.8c-0.3,1.1-0.5,2.2-0.4,3.2c0.1,1.1,0.7,2.2,1.6,2.7c1.6,0.9,3.5,0,5-0.8
						c-0.2,1.4,0.6,2.9,1.8,3.6c1.3,0.6,3,0.4,4-0.7c0.6-0.6,1.1-1.5,1.9-1.7c1.2-0.2,2,1.3,3.1,1.7c1,0.4,2.3,0,3.1-0.8
						c0.8-0.8,1.2-1.9,1.4-3c1.1-4.4,0.7-9.2-1.1-13.4c-0.9-2.1-2.2-4.1-3.7-5.8c-1.2-1.4-3.3-3.8-5.4-3.8c-2.1,0-3.8,3-4.8,4.5
						c-1.4,2-2.7,4.1-3.8,6.4C382,205.4,381.1,208.1,380.4,210.8z"/>
					<path class="st5" d="M405.2,184.3c0.9-0.6,1.8-1.1,2.8-1.3c1-0.2,2.2,0,2.9,0.8c1.1,1.3,0.2,3.5,1.3,4.8c0.6,0.8,1.7,1,2.7,1.4
						c1,0.4,2,1,2,2c0,1.6-2.5,2.1-3.2,3.5c-0.7,1.6,1.1,3.1,1.6,4.7c0.5,1.6-0.5,3.4-2.1,4.3c-1.5,0.9-3.5,1-5.3,0.6
						c-1.8-0.4-3.4-1.2-5-2.1c-2.8-1.6-10.2-5.2-8.7-9c0.8-2,3.2-3.7,4.9-5.2C401,187.2,403,185.7,405.2,184.3z"/>
					<g>
						<path class="st6" d="M394.7,192.6c0.2,0,0.4-0.1,0.5-0.3c1.8-2.8,3-5.8,3.7-9c0.1-0.3-0.1-0.6-0.5-0.7
							c-0.3-0.1-0.6,0.1-0.7,0.5c-0.6,3-1.8,5.8-3.4,8.3c0.4-5.6,1.9-11.1,4.5-16.1c0.2-0.3,0-0.7-0.3-0.8c-0.3-0.2-0.7,0-0.8,0.3
							c-2.7,5.3-4.3,11.1-4.6,17c-1.9-2.9-3-6.3-3.3-9.8c0-0.3-0.3-0.6-0.6-0.6c-0.3,0-0.6,0.3-0.6,0.6c0.3,3.8,1.5,7.4,3.6,10.6
							c0.1,0.2,0.3,0.3,0.5,0.3c0.1,0,0.2,0,0.3-0.1c0,0,0,0,0,0c0,0.3,0.3,0.5,0.6,0.5c0,0,0,0,0,0c0.3,0,0.6-0.3,0.6-0.6
							c0-0.1,0-0.2,0-0.3c0,0,0,0,0.1,0.1C394.5,192.5,394.6,192.6,394.7,192.6z"/>
						<path class="st6" d="M411.5,192.3c-4.6-0.3-9.2-0.1-13.7,0.7c2-1.5,4.5-2.4,6.9-2.4c0.3,0,0.6-0.3,0.6-0.6
							c0-0.3-0.3-0.6-0.6-0.6c-3.1,0-6.3,1.3-8.6,3.4c-0.1,0.1-0.2,0.3-0.2,0.5c-0.3,0.1-0.5,0.1-0.8,0.2c-0.3,0.1-0.5,0.4-0.5,0.7
							c0.1,0.3,0.3,0.5,0.6,0.5c0,0,0.1,0,0.1,0c0.1,0,0.2,0,0.3-0.1c0,0.2,0.1,0.4,0.3,0.5c3.4,2.3,7.3,3.9,11.4,4.6
							c0,0,0.1,0,0.1,0c0.3,0,0.5-0.2,0.6-0.5c0.1-0.3-0.2-0.6-0.5-0.7c-3.7-0.7-7.3-2.1-10.5-4.2c4.8-0.9,9.6-1.2,14.5-0.9
							c0.3,0,0.6-0.2,0.6-0.6C412.1,192.6,411.8,192.3,411.5,192.3z"/>
						<path class="st6" d="M393.2,194.2c0-0.2-0.1-0.5-0.3-0.6c-3.1-1.8-6.4-3.4-9.9-4.7c-0.3-0.1-0.7,0-0.8,0.4
							c-0.1,0.3,0,0.7,0.4,0.8c2.7,1,5.3,2.2,7.8,3.5c-4.2-0.7-8.6-0.7-12.8,0c-0.3,0.1-0.5,0.4-0.5,0.7c0.1,0.3,0.4,0.5,0.7,0.5
							c4-0.7,8.3-0.7,12.4,0c-2.5,2.8-5.8,4.9-9.4,6c-0.3,0.1-0.5,0.4-0.4,0.8c0.1,0.3,0.3,0.4,0.6,0.4c0.1,0,0.1,0,0.2,0
							c2.8-0.9,5.4-2.3,7.7-4.2c-1.8,3.2-3,6.7-3.3,10.3c0,0.3,0.2,0.6,0.5,0.6c0,0,0.1,0,0.1,0c0.3,0,0.5-0.2,0.6-0.5l0.1-0.3
							c0-0.1,0-0.2,0-0.3c0.5-4.3,2.2-8.5,4.8-12c0.2-0.2,0.2-0.5,0-0.7c0.2-0.1,0.3-0.2,0.4-0.4c0,0,0,0,0,0c0,0,0,0,0.1,0
							c0,0,0,0,0,0c0.4,6.1-0.1,12.2-1.5,18.2c-0.1,0.3,0.1,0.6,0.5,0.7c0,0,0.1,0,0.1,0c0.3,0,0.5-0.2,0.6-0.5
							c1.4-6.1,1.9-12.3,1.5-18.5C393.3,194.3,393.3,194.2,393.2,194.2z"/>
						<path class="st6" d="M395.2,195.3c-0.3,0.1-0.5,0.5-0.4,0.8c1.3,3.6,1.7,7.5,1.4,11.3c-0.1,0.2-0.2,0.4-0.1,0.6l0.1,0.2
							c0.1,0.2,0.3,0.3,0.5,0.3c0,0,0.1,0,0.1,0c0.3,0,0.5-0.3,0.5-0.5c0.5-4.1,0-8.4-1.4-12.4C395.9,195.4,395.5,195.2,395.2,195.3
							z"/>
					</g>
					<path class="st7" d="M388.7,192.3c-0.7,1.6-0.4,3.6,0.7,4.9c1.1,1.3,3,1.9,4.7,1.5c1.7-0.4,3.1-1.7,3.7-3.4
						c0.5-1.4,0.3-3-0.5-4.2C395.3,188.2,390.1,189.2,388.7,192.3z"/>
				</g>
			</g>
			<g>
				<g>
					<g>
						<path class="st3" d="M823.5,189c1.2-1,2.9-1.3,4.4-1.1c2.6,0.4,4.8,2.4,5.6,4.9c0.7,2.5,0,5.4-2,7.1c-2.4,2.2-6.3,2.5-9.2,1.1
							c-2.8-1.4-2.2-4.1-1.5-6.6C821.3,192.5,821.9,190.3,823.5,189z"/>
						<path class="st3" d="M819.2,208.1c2.4-0.9,5.4-0.6,7,1.3c0.9,1,1.3,2.3,1.5,3.6c0.2,0.9,0.3,1.8,0.1,2.7
							c-0.4,1.7-1.9,3-3.7,3.5s-3.6,0.1-5.2-0.6c-1.2-0.5-2.4-1.3-3.4-2.2c-0.8-0.8-2.2-1.9-2.2-3.2c0-1.2,1.3-2.1,2.2-2.8
							C816.6,209.4,817.8,208.6,819.2,208.1z"/>
						<path class="st3" d="M809.7,197.7c2.5-1.8,4.1-4.9,3.4-7.9c-0.6-2.4-2.6-4.2-4.8-5.3c-1.6-0.7-3.4-1.1-5.1-0.7
							c-1.8,0.4-3.3,1.8-4.3,3.3c-1.3,2.1-1.8,4.6-1.3,7c0.3,1.9,1.9,5.9,4.1,6C804.4,200.4,807.6,199.2,809.7,197.7z"/>
						<path class="st3" d="M799.4,218.9c1.6-1,3.4-1.7,5.2-1.6c2.6,0.1,5,1.8,6.1,4.1c1,2.4,0.6,5.3-1,7.3c-1.4,1.7-3.6,2.6-5.7,2.6
							c-2.3,0-4.6-0.9-6.2-2.6c-1.4-1.5-2.2-3.4-2.3-5.5C795.3,221.4,797.9,219.9,799.4,218.9z"/>
						<path class="st3" d="M783.6,202.1c1-0.6,2-1.4,2.7-2.3c0.8-0.9,1.3-2.1,1.4-3.3c0.1-1.4-0.5-2.7-1.3-3.8
							c-1.5-2.1-4-3.7-6.5-3.5c-1.6,0.2-3,1-4.1,2.1c-1.1,1.1-1.9,2.5-2.5,4c-1.1,2.6-1.8,6.2-0.2,8.8c1.3,2,4.1,0.8,5.9,0.2
							C780.6,203.8,782.2,203,783.6,202.1z"/>
						<path class="st3" d="M777.2,224.4c2.2,0.1,4.5,0.6,6.2,1.9c1.8,1.3,3,3.5,2.8,5.7c-0.2,2.2-1.8,4.2-3.9,5.1
							c-2.1,0.8-4.5,0.5-6.5-0.6c-1.9-1.1-3.4-3-4.2-5.1c-0.4-1.1-0.6-2.2-0.8-3.3c-0.1-0.7-0.3-2.1,0.2-2.8
							c0.5-0.7,1.9-0.6,2.6-0.7C774.9,224.4,776,224.3,777.2,224.4z"/>
						<path class="st3" d="M757.6,222.5c1.7,0.1,3.5,0.4,4.9,1.3c1.7,1.1,2.8,3.1,2.7,5.1c-0.1,2-1.2,4-3,5c-1.8,1-4.1,1-5.8,0
							c-1.8-1-2.9-2.8-3.8-4.6c-0.6-1.2-1.1-2.4-1.3-3.7c-0.1-1.1-0.2-3.4,1.2-3.6c0.7-0.1,1.5,0.2,2.2,0.3
							C755.7,222.4,756.7,222.4,757.6,222.5z"/>
						<path class="st3" d="M761.9,205.5c2.4-0.4,4.9-1.9,5.4-4.3c0.5-1.9-0.3-3.8-1.1-5.5c-0.6-1.2-1.3-2.5-2.6-2.9
							c-0.9-0.3-2,0-2.9,0.4c-2.1,0.9-3.8,2.5-4.9,4.5c-0.6,1.1-1,2.4-1.2,3.7c-0.1,0.8-0.4,2.4,0.2,3c0.6,0.7,2.3,0.8,3.1,0.9
							C759.2,205.6,760.6,205.7,761.9,205.5z"/>
					</g>
					<path class="st8" d="M760.3,228.9c0.1-0.2,0.1-0.5-0.2-0.7c-5.5-3.3-10-8.4-12.6-14.2c5.1,1.3,10.4,2.2,15.6,2.6
						c4.4,6.8,11.1,12.1,18.7,14.9c0.3,0.1,0.5,0,0.6-0.3c0.1-0.3,0-0.5-0.3-0.6c-7.2-2.6-13.5-7.5-17.8-13.9
						c6.3,0.4,12.7,0.1,19-0.8c0.2,0,0.5-0.1,0.7-0.1c6.1,6.3,14.9,9.7,23.6,9.1c0.3,0,0.5-0.3,0.5-0.5c0-0.3-0.3-0.5-0.5-0.5
						c-8.2,0.6-16.5-2.5-22.3-8.3c6.2-1.1,12.3-2.8,18.1-5.2c5.2,2.3,10.9,3.5,17.2,3.5c0.3,0,0.5-0.2,0.5-0.5
						c0-0.3-0.2-0.5-0.5-0.5c-5.8,0-11.1-1-15.9-3c8-3.3,15.4-7.8,22.2-13.4c0.2-0.2,0.2-0.5,0.1-0.7c-0.2-0.2-0.5-0.2-0.7-0.1
						c-6.9,5.7-14.7,10.3-22.9,13.6c-0.1,0-0.1,0-0.2,0.1c-1.4,0.6-2.8,1.1-4.2,1.6c0.8-7.1,3.7-14.1,8.2-19.7
						c0.2-0.2,0.1-0.5-0.1-0.7c-0.2-0.2-0.5-0.1-0.7,0.1c-4,5-6.7,11-8,17.3c-0.2,1.1-0.4,2.3-0.5,3.4c-4.8,1.6-9.7,2.8-14.7,3.5
						c-3.8,0.6-7.7,0.9-11.6,1c1.9-7.7,5.8-14.9,11.2-20.7c0.2-0.2,0.2-0.5,0-0.7c-0.2-0.2-0.5-0.2-0.7,0c-5.6,6-9.6,13.4-11.5,21.3
						c0,0,0,0,0,0c0,0,0,0,0,0c-7.1,0.1-14.1-0.7-21-2.4c2.7-6,7.4-11.1,13.1-14.4c0.2-0.1,0.3-0.4,0.2-0.7
						c-0.1-0.2-0.4-0.3-0.7-0.2c-5.9,3.4-10.7,8.7-13.6,15c-4.1-1-8.2-2.3-12.2-4c-0.3-0.1-0.5,0-0.7,0.3c0,0,0,0.1,0,0.1
						c0,0.2,0.1,0.5,0.3,0.6c3.3,1.3,6.7,2.5,10.1,3.4c2.7,6.4,7.5,11.8,13.4,15.4C759.8,229.3,760.1,229.2,760.3,228.9z"/>
				</g>
				<g>
					<path class="st11" d="M682.7,228.2c-3.1,7.6-9.2,13.9-16.5,17.6c-7.3,3.7-15.8,4.9-24,4c3.4-10.2,7.4-20.4,13.9-29
						c4.7-6.3,10.7-11.8,17.9-15.1c2.9-1.4,6.4-3.3,8.5,0.2c1.8,2.9,2.3,7,2.4,10.4C685,220.3,684.2,224.4,682.7,228.2z"/>
					<path class="st10" d="M642.6,249.8c10-7.6,18.3-15.2,25.1-23.1c5.9-6.8,10.8-13.8,14.7-21c-0.2-0.3-0.4-0.6-0.6-0.8
						c-3.9,7.3-8.8,14.4-14.7,21.2c-6.7,7.7-14.8,15.2-24.5,22.6c-0.1,0.3-0.2,0.7-0.3,1C642.3,249.8,642.4,249.8,642.6,249.8z"/>
				</g>
				<g>
					<path class="st12" d="M671.6,218.9c-5.4,3.3-11.5,5.7-17.8,5.9c-9.7,0.4-18.9-4-27.6-8.3c7.9-7.1,17.8-11.9,28.2-14
						c4.4-0.9,8.9-1.2,13.3-1.1c3.7,0.1,9,0,12.2,2.1C688.4,209,675.8,216.4,671.6,218.9z"/>
					<path class="st4" d="M681.8,205.2c-18,4.4-36.3,7.9-54.7,10.6c-0.3,0.3-0.6,0.5-0.9,0.8c0.2,0.1,0.4,0.2,0.5,0.3
						c18.7-2.7,37.3-6.2,55.7-10.7C682.2,205.8,682.1,205.5,681.8,205.2z"/>
				</g>
				<g>
					<path class="st9" d="M708.1,191.8c6-2.4,12.9-2.3,18.8,0.4c-0.9,1.1-1.7,2.1-2.6,3.2c6.9-0.5,13.9,2.5,18.3,7.8
						c-1.3,0.3-2.5,0.7-3.8,1c6.4,2.5,11.1,6,14.1,10.6c-3.6,3.7-8.5,6-13.6,6.4c1.4,0.8,2.8,1.6,4.3,2.5
						c-5.6,2.9-12.6,2.9-18.2,0.1c0.9,1.2,1.8,2.5,2.8,3.7c-6.6,0.5-13.4-1.1-19.1-4.6c-5.3-3.2-12.2-9.4-13.1-15.9
						C694.9,200.1,702.6,194.1,708.1,191.8z"/>
					<path class="st10" d="M728.1,227.4c-0.1-0.1-0.2-0.2-0.2-0.3c-7.7-2.4-14.6-8.5-17.9-16.2c4.9,1.3,9.9,2.3,15,3.1
						c0.9,3.6,3.7,6.6,8,8.4c3,1.3,6.2,1.7,9.3,1.8c0.5-0.2,0.9-0.4,1.4-0.6c-0.1-0.1-0.3-0.1-0.4-0.2c-3.2-0.1-6.7-0.4-9.9-1.8
						c-2.3-1-6.2-3.2-7.4-7.5c8.7,1.2,17.6,1.6,26.4,1.1c0.2-0.2,0.4-0.3,0.6-0.5c-0.1-0.1-0.2-0.2-0.3-0.4
						c-9.5,0.6-19,0.1-28.5-1.4c0.4-4.4,3.3-8.5,7.4-10.2c3.4-1.4,7.4-1.2,10.6,0.5c0.1,0,0.3-0.1,0.4-0.1c-0.3-0.4-0.7-0.8-1-1.1
						c-3.3-1.4-7.1-1.5-10.4-0.1c-3.8,1.6-6.7,5.2-7.6,9.3c-0.1,0.5-0.2,1.1-0.2,1.6c-6.2-1-12.4-2.5-18.4-4.4
						c2.4-4.5,6-8.3,10.5-11.1c3.3-2.1,7-3.5,10.8-4.2c0.3-0.3,0.5-0.6,0.8-0.9c-0.1,0-0.1-0.1-0.2-0.1c-4.2,0.7-8.2,2.2-11.9,4.4
						c-4.6,2.9-8.4,6.9-10.9,11.6c-2.8-0.9-5.5-1.9-8.2-2.9c0,0.3,0,0.6,0,1c2.7,1,5.4,2,8.1,2.9c0,0,0,0,0,0c0.1,0,0.1,0,0.2,0
						c1.6,0.5,3.2,1,4.8,1.4c0,0,0,0,0,0c3.1,7.7,9.8,14.1,17.4,16.9C726.9,227.5,727.5,227.5,728.1,227.4z"/>
				</g>
				<g>
					<path class="st5" d="M695.7,233.1c1.5-1.4,2.1-3.9,4-4.6c1.2-0.4,2.6-0.1,3.5-0.9c0.6-0.5,0.8-1.3,0.7-2.1
						c-0.1-0.8-0.4-1.5-0.8-2.2c-0.7-1.4-1.4-2.7-2.2-4c0.2,0.2,0.4,0.4,0.6,0.5c1.8,1.4,3.8,2.7,6,2.9c2.3,0.2,4.8-1,5.4-3.1
						c0.9-2.7-1.4-5.7-0.7-8.4c0.5-1.8,2.1-3.2,2-5.1c0-1.2-0.9-2.3-1.9-2.9c-1-0.6-2.2-0.9-3.4-1c-2.4-0.3-4.9-0.1-7.3,0.5
						c-0.5,0.1-0.9,0.2-1.4,0.4c1.7-1.3,3.2-2.7,4.6-4.3c0.7-0.9,1.5-1.8,1.8-2.9c0.3-1.1,0.1-2.4-0.8-3.1c-1-0.8-2.5-0.6-3.6-1.4
						c-1.5-1.2-1-3.6-1.7-5.3c-0.7-1.6-2.5-2.6-4.3-2.6c-1.8,0.1-3.4,1-4.6,2.4c-1.2,1.3-1.9,3-2.4,4.7c-0.2,0.8-0.4,1.6-0.5,2.4
						c-0.6-1.8-1.4-3.6-3-4.8c-1.8-1.3-4.4-1.3-6.2,0c-1.4,1-2.3,2.8-3.8,3.6c-1.8,1-4.2,0.4-6,1.5c-1.7,1.1-2.1,3.5-1.5,5.3
						c0.6,1.9,2.1,3.4,3.7,4.6c2.4,1.8,5.1,3.1,8,3.9c-2.2,0.2-4.4,0.4-6.6,0.8c-1.4,0.2-2.8,0.5-4,1.3c-1.2,0.8-2.1,2.2-1.9,3.6
						c0.3,2.6,3.8,4,3.8,6.6c0,0.7-0.3,1.4-0.4,2.1c-0.4,2.1,1,4.3,3,5.3c1.9,0.9,4.3,0.8,6.3-0.1c2-0.9,3.6-2.4,5-4
						c0.3-0.3,0.6-0.7,0.9-1.1c-0.1,0.4-0.1,0.7-0.1,1.1c-0.2,2.1-0.3,4.2,0.2,6.2c0.5,2,1.7,3.9,3.5,4.9
						C691.7,234.6,694.2,234.5,695.7,233.1z M691.1,207.6c0.2-0.1,0.4-0.1,0.5-0.2c0,0,0,0,0.1,0c0.2,0.3,0.4,0.5,0.6,0.8
						c0,0.3,0,0.6,0.2,1c0.1,0.3,0.3,0.7,0.5,1c-0.5,0.3-1,0.6-1.5,1c0.1-0.3,0.1-0.6,0.2-0.9C691.8,209,691.7,208.1,691.1,207.6z"
						/>
					<g>
						<path class="st6" d="M704.2,214.5c0.2,0.1,0.5-0.1,0.6-0.3c0.1-0.3-0.1-0.5-0.3-0.6c-3.4-1-6.7-2.4-9.8-4.2
							c4-2.6,9.2-3.4,13.8-2c0.2,0.1,0.5-0.1,0.6-0.3c0.1-0.3-0.1-0.5-0.3-0.6c-5.1-1.5-10.9-0.5-15.2,2.6c-0.1,0.1-0.2,0.2-0.2,0.3
							c0,0.1,0,0.3,0.1,0.4c0.1,0.1,0.1,0.1,0.2,0.2c0,0,0,0,0,0C696.9,211.9,700.4,213.4,704.2,214.5z"/>
						<path class="st6" d="M691.7,231c0.2-0.1,0.4-0.4,0.3-0.6c-0.7-2.1-1.5-4.4-1.8-6.7c-0.4-3.4,0.4-7,2.3-9.9
							c1.3,3.5,3.2,6.8,5.9,9.5c0.2,0.2,0.5,0.2,0.7,0c0.2-0.2,0.2-0.5,0-0.7c-2.7-2.8-4.7-6.2-5.9-9.9c0-0.1,0-0.2-0.1-0.3
							c-0.1-0.4-0.3-0.9-0.4-1.4c-0.1-0.3-0.3-0.4-0.6-0.3c-0.2,0-0.3,0.2-0.3,0.4c0,0.1,0,0.1,0,0.2c0.1,0.5,0.2,0.9,0.4,1.4
							c-1.2,1.7-2,3.6-2.5,5.7c-0.4,1.8-0.5,3.6-0.3,5.5c0.3,2.4,1.1,4.7,1.8,6.9C691.2,230.9,691.4,231,691.7,231z"/>
						<path class="st6" d="M690.3,212.1c0.2-0.2,0.1-0.5-0.1-0.7c-0.2-0.2-0.5-0.1-0.7,0.1c-2.9,3.5-6.5,6.4-10.5,8.6
							c-0.1,0.1-0.2,0.2-0.2,0.3c0,0.1,0,0.2,0,0.3c0.1,0.2,0.4,0.3,0.6,0.2C683.6,218.7,687.3,215.6,690.3,212.1z"/>
						<path class="st6" d="M689.9,210.3c-0.1-0.2-0.4-0.3-0.6-0.2c-4.2,2.2-9.1,3.1-13.8,2.4c-0.2,0-0.5,0.1-0.5,0.4c0,0,0,0,0,0
							c0,0.3,0.1,0.5,0.4,0.5c4.9,0.7,10-0.2,14.4-2.5C689.9,210.8,690,210.5,689.9,210.3z"/>
						<path class="st6" d="M690.3,207.7C690.3,207.7,690.3,207.7,690.3,207.7c0-0.1,0-0.1,0-0.2c0.1,0,0.2-0.1,0.3-0.2
							c0,0,0,0,0-0.1c0,0.2,0.2,0.5,0.4,0.5c0.3,0,0.5-0.2,0.5-0.4c0.4-5.4,1.8-10.7,4.2-15.6c0.1-0.2,0-0.5-0.2-0.6
							c-0.2-0.1-0.5,0-0.6,0.2c-1.4,3-2.5,6.1-3.3,9.4c-0.5,2-0.8,4.1-1,6.1c0-0.1-0.1-0.1-0.1-0.2c-3.7-3-6.2-7.4-7-12.1
							c0-0.3-0.3-0.4-0.5-0.4c-0.2,0-0.3,0.2-0.4,0.4c0,0.1,0,0.1,0,0.2c0.7,4.7,3.2,9.1,6.8,12.3c-4.5-1.1-8.8-3.5-12.1-6.7
							c-0.2-0.2-0.5-0.2-0.7,0c-0.1,0.1-0.1,0.1-0.1,0.2c0,0.2,0,0.3,0.1,0.4c3.6,3.5,8.2,6.1,13.1,7.1
							C690,208.2,690.2,208,690.3,207.7z"/>
						<path class="st6" d="M699.4,197.4c-2.2,2.9-4.7,5.7-7.2,8.3c-0.1,0.1-0.1,0.1-0.1,0.2c0,0.2,0,0.3,0.1,0.4
							c0.2,0.2,0.5,0.2,0.7,0c2.6-2.6,5.1-5.4,7.3-8.4c0.2-0.2,0.1-0.5-0.1-0.7C699.9,197.2,699.6,197.2,699.4,197.4z"/>
					</g>
					<path class="st7" d="M694.8,205.3c-1.5-1.4-3.9-1.7-5.6-0.7s-2.7,3.2-2.3,5.2c0.4,2.1,2.3,3.6,4.4,4.1
						C695.8,214.7,697.9,208.1,694.8,205.3z"/>
				</g>
			</g>
			<g>
				<g>
					<g>
						<path class="st11" d="M336.8,359.4c-1.1-0.5-2.5-0.3-3.6,0.3c-1.8,0.9-3,2.9-3,5c0,2,1.3,4,3.2,4.9c2.3,1.1,5.3,0.4,7.2-1.4
							c1.7-1.7,0.7-3.6-0.5-5.3C339.3,361.5,338.3,360,336.8,359.4z"/>
						<path class="st11" d="M344.6,372.7c-2-0.1-4.2,0.8-5,2.6c-0.4,1-0.4,2-0.3,3.1c0.1,0.7,0.2,1.4,0.6,2c0.7,1.2,2.2,1.8,3.6,1.7
							c1.4-0.1,2.7-0.8,3.7-1.7c0.8-0.7,1.5-1.5,2-2.5c0.5-0.8,1.2-2,0.9-2.9c-0.3-0.9-1.5-1.3-2.3-1.6
							C346.9,373.1,345.8,372.8,344.6,372.7z"/>
						<path class="st11" d="M349.2,362.6c-2.3-0.7-4.3-2.7-4.4-5.1c-0.1-1.9,0.9-3.8,2.4-5.1c1-0.9,2.3-1.7,3.6-1.8
							c1.5-0.1,2.9,0.5,4,1.5c1.5,1.2,2.4,3,2.7,4.9c0.2,1.5,0,4.9-1.7,5.5C353.9,363.4,351.1,363.3,349.2,362.6z"/>
						<path class="st11" d="M362,376.1c-1.4-0.4-2.9-0.4-4.3,0.1c-1.9,0.7-3.3,2.5-3.6,4.5c-0.2,2,0.8,4.1,2.5,5.2
							c1.4,0.9,3.3,1.1,4.9,0.6c1.7-0.5,3.2-1.8,4-3.4c0.7-1.5,0.8-3.1,0.4-4.7C365.7,376.9,363.4,376.4,362,376.1z"/>
						<path class="st11" d="M369.9,359.7c-0.9-0.2-1.8-0.6-2.6-1.1c-0.8-0.5-1.5-1.2-1.8-2.1c-0.4-1-0.3-2.1,0-3.2
							c0.6-2,2.1-3.7,4.1-4.2c1.2-0.3,2.5,0,3.6,0.6c1.1,0.6,2,1.4,2.8,2.4c1.4,1.7,2.8,4.2,2.2,6.5c-0.5,1.8-2.9,1.6-4.4,1.6
							C372.5,360.2,371.2,360,369.9,359.7z"/>
						<path class="st11" d="M380,374.8c-1.6,0.6-3.2,1.5-4.2,2.9c-1,1.4-1.4,3.3-0.8,4.9c0.7,1.6,2.4,2.8,4.1,2.9
							c1.8,0.1,3.5-0.7,4.7-2c1.2-1.3,1.8-3.1,1.9-4.8c0-0.9,0-1.8-0.2-2.7c-0.1-0.6-0.3-1.7-0.8-2c-0.5-0.4-1.6,0-2.1,0.1
							C381.8,374.3,380.9,374.5,380,374.8z"/>
						<path class="st11" d="M394.3,368.7c-1.3,0.5-2.5,1.1-3.4,2.1c-1,1.2-1.3,3-0.8,4.5c0.5,1.5,1.9,2.7,3.4,3
							c1.6,0.3,3.3-0.2,4.4-1.4c1.1-1.2,1.5-2.8,1.7-4.4c0.1-1,0.2-2.1,0.1-3.1c-0.1-0.8-0.7-2.6-1.8-2.4c-0.5,0.1-1.1,0.5-1.6,0.7
							C395.6,368.2,394.9,368.5,394.3,368.7z"/>
						<path class="st11" d="M387,357.1c-1.9,0.3-4.1-0.3-5.1-1.9c-0.8-1.3-0.7-2.9-0.5-4.4c0.1-1,0.4-2.2,1.3-2.8
							c0.6-0.4,1.5-0.5,2.2-0.4c1.8,0.2,3.5,1,4.8,2.2c0.7,0.7,1.3,1.6,1.8,2.5c0.3,0.6,0.8,1.7,0.6,2.3c-0.3,0.7-1.5,1.1-2.1,1.4
							C389,356.5,388,356.9,387,357.1z"/>
					</g>
					<path class="st9" d="M393.8,374.2c-0.2-0.1-0.2-0.4,0-0.6c3.3-3.8,5.5-8.7,6.1-13.7c-3.5,2.2-7.2,4.1-11.1,5.7
						c-1.7,6.2-5.4,11.8-10.5,15.7c-0.2,0.1-0.4,0.1-0.6-0.1c-0.1-0.2-0.1-0.4,0.1-0.6c4.8-3.7,8.3-8.9,10-14.7
						c-4.7,1.8-9.5,3.2-14.5,3.9c-0.2,0-0.4,0.1-0.5,0.1c-3,6.2-8.8,10.8-15.5,12.5c-0.2,0.1-0.4-0.1-0.5-0.3
						c-0.1-0.2,0.1-0.4,0.3-0.5c6.3-1.5,11.8-5.9,14.8-11.6c-4.9,0.7-9.9,0.8-14.8,0.5c-3.3,3-7.4,5.3-12.1,6.8
						c-0.2,0.1-0.4-0.1-0.5-0.3c-0.1-0.2,0-0.4,0.3-0.5c4.3-1.4,8.1-3.4,11.2-6.1c-6.8-0.6-13.5-2.2-19.8-4.7
						c-0.2-0.1-0.3-0.3-0.2-0.5c0.1-0.2,0.3-0.3,0.5-0.2c6.6,2.6,13.5,4.2,20.5,4.7c0,0,0.1,0,0.1,0c1.2,0.1,2.4,0.1,3.5,0.2
						c-2.3-5.2-6.2-9.7-10.9-12.8c-0.2-0.1-0.2-0.4-0.1-0.5c0.1-0.2,0.4-0.2,0.5-0.1c4.2,2.8,7.7,6.6,10.1,11.1
						c0.4,0.8,0.8,1.6,1.2,2.5c3.9,0,7.9-0.2,11.8-0.9c3-0.5,6-1.2,8.9-2c-3.3-5.3-7.9-9.8-13.4-12.8c-0.2-0.1-0.3-0.3-0.2-0.5
						c0.1-0.2,0.3-0.3,0.5-0.2c5.6,3.2,10.4,7.7,13.8,13.3c0,0,0,0,0,0c0,0,0,0,0,0c5.3-1.7,10.4-3.9,15.2-6.8
						c-3.5-3.8-8.2-6.5-13.2-7.6c-0.2,0-0.3-0.3-0.3-0.5c0-0.2,0.3-0.3,0.5-0.3c5.3,1.1,10.2,4,13.8,8c2.9-1.8,5.6-3.7,8.2-5.9
						c0.2-0.1,0.4-0.1,0.6,0c0,0,0,0,0,0.1c0.1,0.2,0.1,0.4-0.1,0.5c-2.2,1.8-4.4,3.5-6.7,5c-0.5,5.4-2.8,10.7-6.4,14.8
						C394.2,374.3,394,374.4,393.8,374.2z"/>
				</g>
				<g>
					<path class="st13" d="M414.9,374.2c-2.9,4.9-6.7,9.4-11.6,12.4c-7.5,4.5-16.7,5-25.5,5.3c3.3-9,9-17.1,16.4-23.2
						c3.1-2.6,6.5-4.8,10.2-6.6c3-1.5,7.2-3.8,10.6-3.6C423.9,359.1,417.1,370.4,414.9,374.2z"/>
					<path class="st10" d="M417.1,358.9c-12.4,11.2-25.5,21.9-38.9,31.9c-0.1,0.3-0.3,0.7-0.4,1c0.2,0,0.4,0,0.5,0
						c13.7-10.1,27-21,39.6-32.5C417.7,359.2,417.4,359,417.1,358.9z"/>
				</g>
				<g>
					<path class="st11" d="M461.7,388.7c1.5-0.9,1.9-2.9,1.1-4.5c-0.2-0.5-0.5-0.8-0.9-1.2l9.5,4.7c1.9,1,4.1-0.8,3.5-2.9
						c-0.8-3.2-3.2-6-6.4-7c5.3,2,10.9,3.3,16.5,3.9c2.2,0.2,4.9,0,5.7-2.2c0.3-0.8,0.1-1.8-0.3-2.6c-0.9-1.6-2.5-2.3-4.1-3
						c-4.7-2.2-9.4-4.4-14.1-6.5c2.4,0.4,4.9,0.8,7.2-0.1c3.2-1.1,5.6-5.4,1.5-8.2c-0.9-0.6-2-1-3.1-1.1l-17.4-2.4
						c3.3-0.5,6.7-1.1,9.1-3.7c1.3-1.4,2-3.4,1.5-5.3c-1-3.6-5.4-4.3-9-4.3c-6.9,0.1-13.7,0.8-20.4,2.3c-4.5,1-13.5,2.2-16.7,5.7
						c-3.5,3.9,3.1,11.2,5.5,14.4c7,9.5,16.1,17.5,26.5,23.1C458.3,388.8,460.2,389.6,461.7,388.7z"/>
					<path class="st10" d="M424.9,350.3c4.5,3.3,9.1,6.3,13.9,9.1c1.4,8.5,6.7,15.2,10.9,19.3c3.7,3.7,8,6.8,12.4,9.7
						c0.2-0.2,0.5-0.4,0.6-0.7c-4.4-2.9-8.6-6-12.3-9.6c-4-3.9-8.9-10.2-10.5-18c5.3,3.1,10.8,5.9,16.5,8.5c0,0.1,0,0.1,0,0.2
						c2.6,8.4,9.3,15.5,17.4,19c0.3-0.2,0.6-0.4,0.8-0.7c-7.9-3.3-14.4-10-17.1-18.1c10.6,4.7,21.7,8.4,33,11
						c0.1-0.2,0.2-0.3,0.2-0.5c0-0.1,0-0.2,0.1-0.3c-11.8-2.7-23.2-6.5-34.1-11.5c3.4-3.9,9.2-6.1,15.6-5.8c3.6,0.2,7.2,1,10.6,2.1
						c0.1-0.3,0.2-0.6,0.2-0.9c-3.5-1.1-7.1-1.9-10.7-2.1c-6.8-0.3-12.9,2.1-16.5,6.3c-5.6-2.6-11-5.4-16.3-8.5
						c-0.1-0.1-0.1-0.1-0.2-0.1c-1-0.6-2-1.2-3-1.8c11.1-4.9,22.7-8.1,34.7-9.6c0-0.2-0.1-0.4-0.1-0.6c0-0.1-0.1-0.2-0.1-0.3
						c-12.2,1.5-24.1,4.8-35.4,9.9c-3.3-2.1-6.6-4.3-9.8-6.6C425.4,349.8,425.1,350,424.9,350.3z"/>
				</g>
				<g>
					<path class="st14" d="M410.6,350.6c-2.8-2.8-4.5-6.8-3.8-10.7c0.7-3.9,4.2-7.3,8.1-7.2c3,0.1,5.7,2,7.2,4.6
						c2.4,4.3,2.1,10.7,0,15.1C419.6,357.6,413.5,353.5,410.6,350.6z"/>
					<path class="st14" d="M402.9,350.2c-3,0.3-5.9,1.7-7.6,4.1c-1.7,2.5-1.9,6-0.2,8.4c1.2,1.7,3.1,2.7,5.1,3.1
						c2,0.4,4.1,0.3,6.1,0.1c4.3-0.4,10.5-1.9,11.8-6.8c1.1-4.2-4.7-6.6-7.8-7.8C407.9,350.5,405.4,350,402.9,350.2z"/>
					<path class="st14" d="M411.4,372.8c0,2.2,0.5,4.4,1.9,6.1c1.3,1.7,3.6,2.8,5.7,2.3c2-0.5,3.4-2.1,4.4-3.9
						c1.7-3.1,2.5-6.7,2.2-10.2c-0.2-2.5-1.6-9.7-5.3-8.6c-3.3,1-6.2,4.8-7.5,7.8C411.9,368.4,411.4,370.6,411.4,372.8z"/>
					<path class="st14" d="M433,370.1c1.9,0.7,4,1,5.9,0.4c1.9-0.6,3.6-2.2,3.9-4.2c0.3-2.4-1.4-4.5-3.2-6.1
						c-2.2-2.1-4.9-3.9-7.8-4.5c-2.5-0.6-7.4-0.2-8.6,2.7c-1.2,2.8,2.5,6.8,4.4,8.4C429.1,368.3,431,369.4,433,370.1z"/>
					<path class="st14" d="M437.9,340.6c-1.3-1.8-2.9-3.4-5.1-3.9c-2.7-0.6-5.5,0.8-7.4,2.8c-3.6,3.8-4.4,10-1.9,14.6l-0.4-2.4
						c0.5,2.9,3.4,5.1,6.3,4.8c2-0.2,3.7-1.3,5.3-2.4c2.6-1.9,5.2-4.4,5.4-7.6C440.2,344.4,439.2,342.4,437.9,340.6z"/>
					<g>
						<path class="st6" d="M419,356.4l0.9-1.5c-2.5-0.6-5-1.1-7.6-1.4c-2.6-0.3-5.2-0.3-7.7,0.3c-1.2,0.3-2.4,0.8-2.9,1.9
							c-0.5,1-0.1,2.3,0.6,3.2c0.8,0.9,1.8,1.3,2.9,1.7c2.4,0.7,5.1,0.7,7.5,0C415.1,359.8,417.3,358.3,419,356.4z"/>
						<path class="st6" d="M418.7,338.6c-1.2-1.2-3-1.9-4.6-1.6c-1.4,0.3-2.6,1.5-3,2.9c-0.2,0.9-0.1,1.9,0.1,2.8
							c0.4,1.9,1.2,3.8,2.2,5.4c0.9,1.5,2.1,2.8,3.4,3.9c0.7,0.5,1.4,1,2.1,1.5c0.9,0.5,1.4,0.8,1.7-0.3c1.1-3.2,1.2-6.8,0.3-10.1
							C420.6,341.4,419.9,339.8,418.7,338.6z"/>
						<path class="st6" d="M433.3,343.2c-1.4-1-3.3-0.8-4.8,0c-1.5,0.8-2.5,2.2-3.4,3.6c-0.6,0.9-1.2,1.9-1.7,2.9
							c-0.5,0.8-0.9,1.7-1.3,2.6c-0.3,0.6-1,1.7-0.5,2.2c0.5,0.5,1.8,0.5,2.5,0.5c0.8,0,1.6-0.1,2.4-0.3c1.8-0.5,3.5-1.4,5.1-2.4
							c1.4-0.8,2.9-1.7,3.5-3.2c0.5-1.3,0.3-2.8-0.3-4C434.4,344.4,433.9,343.7,433.3,343.2z"/>
						<path class="st6" d="M420.7,357.4c-0.4,0.1-0.7,0.7-0.9,1c-0.6,0.9-1.1,1.8-1.6,2.8c-1,1.9-1.7,4-2.2,6.1
							c-0.3,1.2-0.5,2.4-0.4,3.7c0.1,1.2,0.4,2.5,1.2,3.4c0.5,0.6,1.3,1.1,2,1c0.6-0.1,1.1-0.6,1.5-1.2c1.4-2,2.2-4.4,2.4-6.9
							c0.2-2.4,0-4.9-0.3-7.4c-0.1-0.6-0.2-1.2-0.5-1.8C421.7,357.9,421.1,357.3,420.7,357.4z"/>
						<path class="st6" d="M427.6,357.3c-0.9-0.2-3.6-1.2-4.2-0.3c-0.7,1,1.8,3.3,2.4,3.9c1.4,1.5,2.9,2.9,4.6,4.1
							c1.4,1,2.9,1.9,4.6,2.1c0.7,0.1,1.4,0,1.9-0.3c0.8-0.6,1-1.8,0.7-2.7c-0.3-0.9-1-1.7-1.8-2.4
							C433.4,359.6,430.6,358.1,427.6,357.3z"/>
					</g>
					<path class="st7" d="M416.8,358.8c1.4,1.6,3.8,2.2,5.7,1.5c2-0.7,3.5-2.6,3.8-4.6c0.5-3.5-2.9-6.7-6.3-5
						C417,352.1,413.9,355.5,416.8,358.8z"/>
				</g>
			</g>
			<g>
				<g>
					<path class="st5" d="M517.3,152.3c1.2-0.4,2.3-1.5,2.4-2.8c0.1-1.2-0.6-2.2-1.4-3.1c-0.7-0.8-1.6-1.5-2.5-2.1
						c1.7,0.2,3.5-0.2,4.7-1.3c2.2-1.9,2.7-5.5,1-8c-1.6-2.4-4.7-3.2-7.6-3.5c1.3,0.1,2.6,0.1,3.9-0.2c1.7-0.4,3.4-1.5,4.1-3.1
						c1-2.5-0.7-5.4-3.1-6.6c-2.4-1.2-5.3-0.9-7.9-0.3c1.6-1.4,3.8-1.9,5.7-2.9c1.9-1,3.6-3.1,2.9-5.1c-0.6-1.9-2.9-2.7-4.9-2.9
						c-4.1-0.4-8.2,0.5-12,2.2c-3.8,1.6-7.2,3.9-10.6,6.1c-1.4,0.9-2.9,1.9-4,3.2c-1.2,1.4-1.8,3.2-1.6,5.1c0.7,6.2,5,12.7,9.4,16.9
						c4.8,4.6,11,7.6,17.5,8.6C514.8,152.6,516.1,152.7,517.3,152.3z"/>
					<g>
						<path class="st6" d="M514.2,148.3c0.1-0.3,0-0.5-0.3-0.6c-5.6-2.2-11.3-4.5-16.2-8.1c-4.8-3.5-8.6-8.2-11.2-13.5
							c0,0.3,0,0.6,0,1c0.1,0.6,0.2,1.2,0.3,1.8c2.6,4.5,6.1,8.5,10.3,11.6c5,3.7,10.8,6,16.4,8.2
							C513.9,148.6,514.1,148.5,514.2,148.3z"/>
						<path class="st6" d="M515.8,139.7c0.3,0.1,0.5-0.1,0.6-0.4s-0.1-0.5-0.4-0.6c-10.4-2.1-20.2-6.8-28.2-13.7l28.4,2
							c0.3,0,0.5-0.2,0.5-0.5c0,0,0,0,0,0c0-0.3-0.2-0.5-0.5-0.5l-27.8-1.9c8-3.9,16.3-7.1,24.9-9.4c0.3-0.1,0.4-0.3,0.4-0.6
							c-0.1-0.3-0.3-0.4-0.6-0.4c-9,2.4-17.7,5.8-26.1,10c-0.2,0.5-0.4,1.1-0.5,1.7C494.9,132.6,505,137.6,515.8,139.7z"/>
					</g>
				</g>
				<g>
					<path class="st11" d="M469.9,132.3c-1.5,4.2-3.5,8.3-5.8,12.1c-0.1-0.1-0.1-0.1-0.3-0.1c-6.3-1.1-13,0-18.5,3.1
						c-0.2,0.1-0.3,0.4-0.2,0.7c0,0,0,0,0,0c0.1,0.2,0.4,0.3,0.7,0.2c5.3-3,11.8-4.1,17.8-3c-0.5,0.8-1.1,1.7-1.6,2.5c0,0,0,0-0.1,0
						c-0.2,0.1-0.3,0.3-0.3,0.5c-1.7,2.4-3.5,4.6-5.4,6.7c-6.1-0.1-12.4,1-18.1,3.2c-0.3,0.1-0.4,0.4-0.3,0.6
						c0.1,0.3,0.4,0.4,0.6,0.3c5.3-2.1,11.1-3.1,16.8-3.2c-5.7,5.9-12.4,10.8-20,14.3c-0.2,0.1-0.4,0.4-0.2,0.7
						c0.1,0.2,0.4,0.4,0.7,0.2c6.7-3.1,12.9-7.4,18.2-12.5c1.1,5.1-0.2,10.8-3.5,14.9c-0.2,0.2-0.1,0.5,0.1,0.7
						c0.2,0.2,0.5,0.1,0.7-0.1c3.6-4.5,5-10.7,3.6-16.3c2.7-2.6,5.1-5.5,7.3-8.5c2,5.3,2.1,11.3,0.3,16.7c-0.1,0.3,0,0.5,0.3,0.6
						c0.3,0.1,0.5,0,0.6-0.3c2-5.8,1.8-12.4-0.5-18c3.4-4.9,6.2-10.1,8.2-15.7c0.1-0.1,0-0.3,0-0.4c-0.1-0.1-0.2-0.2-0.3-0.2
						C470.3,131.9,470,132.1,469.9,132.3z"/>
					<g>
						<g>
							<path class="st15" d="M433.2,172c2.2,4,8.3,0.6,6.1-3.3C437.2,164.7,431.1,168.1,433.2,172z"/>
							<path class="st15" d="M448.3,175.4c2.2,4,8.3,0.6,6.1-3.3C452.3,168.1,446.1,171.4,448.3,175.4z"/>
							<path class="st15" d="M460.9,167.2c2.2,4,8.3,0.6,6.1-3.3C464.9,159.9,458.8,163.2,460.9,167.2z"/>
							<path class="st15" d="M437.3,160.6c2.2,4,8.3,0.6,6.1-3.3C441.3,153.3,435.1,156.7,437.3,160.6z"/>
							<path class="st15" d="M445.4,144.5c-0.3,0.3-0.5,0.7-0.6,1.2c-0.1,0.4-0.2,0.9-0.1,1.3c0,0.5,0.1,0.9,0.4,1.3
								c0.2,0.3,0.4,0.5,0.6,0.8c0.4,0.4,0.9,0.7,1.5,0.9c0.3,0,0.6,0.1,0.9,0.1c0.6,0,1.2-0.1,1.8-0.4l0.2-0.1
								c0.4-0.2,0.8-0.5,1-0.9c0.3-0.3,0.5-0.7,0.6-1.2c0.1-0.4,0.2-0.9,0.1-1.3c0-0.5-0.1-0.9-0.4-1.3c-0.2-0.3-0.4-0.5-0.6-0.8
								c-0.4-0.4-0.9-0.8-1.5-0.9c-0.3,0-0.6-0.1-0.9-0.1c-0.6,0-1.2,0.1-1.8,0.4l-0.2,0.1C446,143.8,445.6,144.2,445.4,144.5z"/>
						</g>
					</g>
				</g>
				<g>
					<path class="st16" d="M496.3,130.4c-1.3-2.5-3.9-4.1-6.6-4.5c1.7-2.1,1.9-5.2,1-7.7c-1-2.5-2.9-4.6-5.1-6.2
						c-3-2.2-6.9-3.5-10.4-2.2c-2.2,0.8-3.8,2.6-4.9,4.7c-1.7,0-3.3,0.2-4.8,0.9c-3,1.4-5.2,4.9-4.5,8.1c-0.4-0.7-1.2-1.2-2.1-1.3
						c-1.1-0.1-2.1,0.4-3,1.1c-2.4,1.6-4.2,4.1-4.7,6.9c-0.5,2.8,0.4,5.9,2.6,7.8c2.2,1.9,5.5,2.3,8,0.8c-1.3,1.4-2,3.4-1.8,5.4
						s1,3.8,2.3,5.3c1.9,2.2,4.8,3.7,7.6,3.2c2.8-0.5,5.3-3.2,4.9-6.1c1.8,3.1,4,6.4,7.5,7.1c3.5,0.7,7.1-1.8,8.2-5.2
						c1.1-3.4-0.2-7.2-2.6-9.8c2.1,1.9,5.6,1.6,7.5-0.4C497.3,136.1,497.6,132.8,496.3,130.4z"/>
					<g>
						<path class="st17" d="M471.2,145.2c-2.2,0-4.3-1.1-5.5-2.8c-1.3-1.8-1.6-4.3-0.8-6.4c0.1-0.3,0.5-0.5,0.8-0.4
							c0.3,0.1,0.5,0.5,0.4,0.8c-0.7,1.7-0.4,3.7,0.7,5.2c1.1,1.5,2.9,2.4,4.7,2.3c1,0,2.2-0.4,2.8-1.4c0.2-0.3,0.5-0.4,0.8-0.2
							c0.3,0.2,0.4,0.5,0.2,0.8c-0.7,1.2-2.1,2-3.8,2C471.3,145.2,471.2,145.2,471.2,145.2z"/>
						<path class="st17" d="M477.4,140.5c-1.2,0-2.5-0.3-3.6-0.9c-0.3-0.2-0.4-0.5-0.2-0.8c0.2-0.3,0.5-0.4,0.8-0.2
							c1.2,0.7,2.7,0.9,4.1,0.7c1.4-0.3,2.7-1,3.6-2.1c0.4-0.5,0.7-1,0.8-1.5c0.1-0.5,0-1.1-0.2-1.4c-0.2-0.3-0.1-0.7,0.2-0.8
							c0.3-0.2,0.7-0.1,0.8,0.2c0.4,0.7,0.6,1.5,0.4,2.4c-0.1,0.7-0.5,1.3-1,2c-1.1,1.3-2.6,2.2-4.3,2.6
							C478.3,140.4,477.8,140.5,477.4,140.5z"/>
						<path class="st17" d="M485.2,126.4c-0.1,0-0.3,0-0.4-0.1c-0.3-0.2-0.3-0.6-0.1-0.9c0.8-1,1.3-2.3,1.4-3.6
							c0.1-1.3-0.3-2.6-1-3.7c-0.7-1.1-1.8-2.1-3.1-2.7c-1.2-0.5-2.7-0.8-4.1-0.7c-1.2,0.1-2.3,0.4-3.2,0.9c-1,0.6-1.7,1.5-2,2.4
							c-0.1,0.3-0.4,0.5-0.8,0.4c-0.3-0.1-0.5-0.4-0.4-0.8c0.4-1.2,1.3-2.4,2.5-3.1c1-0.6,2.3-1,3.7-1.1c1.7-0.1,3.3,0.2,4.7,0.8
							c1.5,0.7,2.8,1.8,3.7,3.1c0.8,1.3,1.2,2.9,1.1,4.4c-0.1,1.5-0.7,3.1-1.6,4.3C485.5,126.3,485.3,126.4,485.2,126.4z"/>
						<path class="st17" d="M465.9,127.1c-0.2,0-0.5-0.1-0.6-0.4c-0.6-1.5-0.4-3.3,0.6-4.6c1-1.3,2.6-2,4.3-1.9
							c0.3,0,0.6,0.3,0.5,0.7c0,0.3-0.3,0.6-0.7,0.5c-1.2-0.1-2.4,0.4-3.1,1.4c-0.7,1-0.9,2.3-0.4,3.4c0.1,0.3,0,0.7-0.3,0.8
							C466.1,127.1,466,127.1,465.9,127.1z"/>
						<path class="st17" d="M459.1,135.2C459.1,135.2,459.1,135.2,459.1,135.2c-1.7-0.3-3.2-1.3-3.9-2.6c-0.8-1.5-0.5-3.4,0.6-4.6
							c0.9-1,2.3-1.3,3.6-1.5c0.3,0,0.6,0.2,0.7,0.5c0,0.3-0.2,0.6-0.5,0.7c-1.1,0.2-2.2,0.4-2.9,1.1c-0.8,0.8-0.9,2.1-0.4,3.2
							c0.5,1,1.6,1.7,2.9,1.9c0.3,0.1,0.6,0.4,0.5,0.7C459.7,135,459.4,135.2,459.1,135.2z"/>
						<path class="st17" d="M476.2,134.4C476.2,134.4,476.2,134.4,476.2,134.4c-0.4,0-0.7-0.3-0.7-0.6c0-0.3,0.3-0.6,0.6-0.6
							c0.8,0,1.8-0.5,2.4-1.3c0.5-0.7,0.8-1.7,0.8-2.9c0-1.1-0.2-2.2-0.4-3.3c-0.1-0.3,0.2-0.7,0.5-0.7c0.3-0.1,0.7,0.2,0.7,0.5
							c0.2,1.1,0.4,2.3,0.4,3.5c0,1.4-0.4,2.6-1,3.6C478.7,133.7,477.5,134.4,476.2,134.4z"/>
						<path class="st17" d="M481.8,148.3c-0.2,0-0.3,0-0.5,0c-1.1-0.1-2.5-0.7-2.8-2c-0.1-0.3,0.1-0.7,0.4-0.7
							c0.3-0.1,0.7,0.1,0.7,0.4c0.2,0.6,1,1,1.7,1.1c1.1,0.1,2.3-0.2,3.2-1c0.9-0.7,1.5-1.8,1.7-2.9c0-0.3,0.4-0.6,0.7-0.5
							c0.3,0,0.6,0.4,0.5,0.7c-0.2,1.4-1,2.8-2.1,3.7C484.4,147.9,483.1,148.3,481.8,148.3z"/>
						<path class="st17" d="M487.9,136.2c-0.3,0-0.5-0.2-0.6-0.5c-0.1-0.3,0.1-0.7,0.5-0.7c1-0.2,1.8-1.1,1.9-2.1
							c0.1-1-0.5-2-1.5-2.4c-0.3-0.1-0.5-0.5-0.3-0.8c0.1-0.3,0.5-0.5,0.8-0.3c1.4,0.6,2.3,2.1,2.2,3.7c-0.1,1.5-1.3,2.9-2.9,3.2
							C488,136.2,487.9,136.2,487.9,136.2z"/>
					</g>
					<path class="st7" d="M471.6,128.3c-2.4,0-2.4,3.7,0,3.7C473.9,132,473.9,128.3,471.6,128.3z"/>
					<path class="st7" d="M473.8,123.3c-2.4,0-2.4,3.7,0,3.7C476.1,127,476.2,123.3,473.8,123.3z"/>
					<path class="st7" d="M476.3,127.2c-2.4,0-2.4,3.7,0,3.7C478.6,130.9,478.6,127.2,476.3,127.2z"/>
				</g>
			</g>
			<g>
				<g>
					<path class="st11" d="M307,174.4c-1.7-3.5-3.1-7.2-4.1-10.9c0.1,0,0.2,0,0.2-0.1c4.4-3.2,7.8-8.2,9.1-13.5
						c0.1-0.2-0.1-0.5-0.3-0.5c0,0,0,0,0,0c-0.2-0.1-0.5,0.1-0.5,0.3c-1.3,5.1-4.5,9.8-8.7,12.9c-0.2-0.8-0.4-1.7-0.6-2.5
						c0,0,0,0,0,0c0.1-0.2,0-0.4-0.1-0.5c-0.5-2.5-0.8-4.9-1-7.4c3.7-3.8,6.8-8.4,8.8-13.3c0.1-0.2,0-0.5-0.2-0.6
						c-0.2-0.1-0.5,0-0.6,0.2c-1.9,4.6-4.6,8.8-8,12.4c-0.3-7.1,0.6-14.3,2.9-21.1c0.1-0.2,0-0.5-0.3-0.5c-0.2-0.1-0.5,0-0.5,0.3
						c-2.1,6.1-3.1,12.5-3,18.8c-3.9-2.4-6.6-6.6-7.2-11.1c0-0.2-0.2-0.4-0.5-0.4c-0.2,0-0.4,0.2-0.4,0.5c0.6,5,3.7,9.5,8.1,12
						c0.1,3.2,0.4,6.5,1,9.7c-4.5-1.9-8.4-5.4-10.6-9.8c-0.1-0.2-0.4-0.3-0.6-0.2c-0.2,0.1-0.3,0.4-0.2,0.6
						c2.4,4.7,6.7,8.5,11.6,10.4c1,5,2.7,9.9,5,14.5c0.1,0.1,0.2,0.2,0.3,0.2c0.1,0,0.2,0,0.3,0C307,174.9,307.1,174.6,307,174.4z"
						/>
					<g>
						<g>
							<path class="st15" d="M304,127.8c-3.8-1-5.3,4.8-1.6,5.8C306.2,134.6,307.8,128.8,304,127.8z"/>
							<path class="st15" d="M292.9,135.2c-3.8-1-5.3,4.8-1.6,5.8C295.1,142,296.6,136.2,292.9,135.2z"/>
							<path class="st15" d="M290.5,148c-3.8-1-5.3,4.8-1.6,5.8C292.7,154.8,294.2,149,290.5,148z"/>
							<path class="st15" d="M308.7,137.1c-3.8-1-5.3,4.8-1.6,5.8C310.9,144,312.5,138.1,308.7,137.1z"/>
							<path class="st15" d="M313.9,151.8c0-0.4-0.1-0.8-0.4-1.1c-0.2-0.4-0.4-0.6-0.8-0.9c-0.3-0.3-0.7-0.5-1.1-0.6
								c-0.3,0-0.5-0.1-0.8-0.1c-0.5,0-1,0.1-1.5,0.4c-0.2,0.2-0.4,0.3-0.6,0.5c-0.4,0.4-0.7,0.8-0.8,1.4l-0.1,0.2
								c-0.1,0.4-0.1,0.8-0.1,1.2c0,0.4,0.1,0.8,0.4,1.1c0.2,0.4,0.4,0.6,0.8,0.9c0.3,0.3,0.7,0.5,1.1,0.6c0.3,0,0.5,0.1,0.8,0.1
								c0.5,0,1-0.1,1.5-0.4c0.2-0.2,0.4-0.3,0.6-0.5c0.4-0.4,0.7-0.8,0.8-1.4l0.1-0.2C314,152.6,314,152.2,313.9,151.8z"/>
						</g>
					</g>
				</g>
				<g>
					<path class="st15" d="M313.5,155.8c-1.8,0.5-3.3,2.3-5.1,2.1c-1.1-0.1-2.1-1-3.2-0.7c-0.7,0.2-1.2,0.7-1.4,1.4
						c-0.2,0.6-0.3,1.4-0.3,2c0,1.4,0,2.8,0.1,4.1c-0.1-0.2-0.2-0.5-0.3-0.7c-0.8-1.8-1.9-3.7-3.7-4.8c-1.7-1.1-4.2-1.2-5.6,0.3
						c-1.8,1.8-1.2,5.1-2.9,7c-1.1,1.2-3,1.7-3.7,3.2c-0.4,1-0.2,2.2,0.3,3.1c0.6,0.9,1.4,1.6,2.3,2.2c1.8,1.2,3.9,2.1,6,2.6
						c0.4,0.1,0.9,0.2,1.3,0.3c-1.9,0.4-3.7,0.9-5.4,1.6c-0.9,0.4-1.9,0.8-2.6,1.6c-0.7,0.8-1,1.9-0.6,2.8c0.5,1.1,1.8,1.6,2.2,2.6
						c0.7,1.6-0.7,3.3-0.8,5c-0.1,1.6,0.9,3.1,2.4,3.8c1.4,0.7,3.2,0.6,4.6,0c1.5-0.6,2.7-1.6,3.8-2.8c0.5-0.5,1-1.1,1.4-1.7
						c-0.2,1.7-0.3,3.5,0.4,5c0.9,1.8,3,2.9,5,2.5c1.5-0.3,2.9-1.3,4.5-1.3c1.9,0,3.5,1.4,5.4,1.2c1.8-0.2,3.1-1.9,3.4-3.7
						c0.3-1.8-0.3-3.6-1.1-5.2c-1.2-2.4-2.8-4.6-4.8-6.4c1.8,0.8,3.7,1.5,5.6,2.1c1.2,0.4,2.5,0.7,3.8,0.6c1.3-0.1,2.6-0.9,3-2.1
						c0.8-2.2-1.4-4.7-0.4-6.8c0.3-0.6,0.8-1,1.2-1.5c1.2-1.6,1-3.9-0.2-5.4c-1.2-1.5-3.1-2.4-5.1-2.5c-1.9-0.1-3.9,0.4-5.7,1.1
						c-0.4,0.2-0.8,0.3-1.1,0.5c0.2-0.3,0.4-0.5,0.6-0.8c1-1.5,1.9-3.2,2.3-5c0.4-1.8,0.2-3.8-0.8-5.4
						C317.3,156.3,315.3,155.3,313.5,155.8z M306.7,178.1c-0.2,0-0.3,0-0.5,0c0,0,0,0-0.1,0c0-0.3-0.1-0.6-0.2-0.9
						c0.1-0.2,0.2-0.5,0.3-0.8c0-0.3,0-0.6,0-1c0.5,0,1.1-0.1,1.6-0.2c-0.2,0.2-0.4,0.4-0.5,0.6
						C306.8,176.7,306.5,177.4,306.7,178.1z"/>
					<g>
						<g>
							<path class="st18" d="M299.1,167.3c-0.2-0.2-0.4-0.1-0.6,0c-0.2,0.2-0.1,0.4,0,0.6c2.3,2.2,4.4,4.6,6.1,7.3
								c-4.3,0.4-8.7-1.1-11.8-4c-0.2-0.2-0.4-0.2-0.6,0c-0.2,0.2-0.2,0.4,0,0.6c3.4,3.3,8.5,4.9,13.2,4.2c0.1,0,0.2-0.1,0.3-0.1
								c0.1-0.1,0.1-0.2,0.1-0.3c0-0.1-0.1-0.2-0.1-0.2c0,0,0,0,0,0C303.9,172.3,301.7,169.6,299.1,167.3z"/>
							<path class="st18" d="M315.8,159.2c-0.2,0-0.4,0.1-0.5,0.4c-0.3,2-0.6,4.1-1.3,6c-1.1,2.9-3.2,5.4-5.8,7
								c0.4-3.3,0.2-6.7-0.8-10c-0.1-0.2-0.3-0.3-0.5-0.3c-0.2,0.1-0.3,0.3-0.3,0.5c1,3.3,1.3,6.9,0.7,10.3c0,0.1-0.1,0.2-0.1,0.3
								c-0.1,0.4-0.2,0.8-0.2,1.2c-0.1,0.2,0.1,0.5,0.3,0.5c0.2,0,0.3,0,0.4-0.1c0,0,0.1-0.1,0.1-0.2c0.1-0.4,0.2-0.8,0.2-1.2
								c1.6-0.9,3.1-2.1,4.3-3.5c1.1-1.3,1.9-2.7,2.5-4.2c0.8-2,1.1-4.2,1.3-6.2C316.2,159.4,316,159.2,315.8,159.2z"/>
							<path class="st18" d="M309.3,174.9c-0.2,0.1-0.3,0.3-0.2,0.6c0.1,0.2,0.3,0.3,0.6,0.2c3.7-1.6,7.8-2.5,11.9-2.6
								c0.1,0,0.2-0.1,0.3-0.2c0.1-0.1,0.1-0.2,0.1-0.3c0-0.2-0.2-0.4-0.4-0.4C317.3,172.3,313.1,173.2,309.3,174.9z"/>
							<path class="st18" d="M308.8,176.5c0,0.2,0.2,0.4,0.4,0.4c4.3,0,8.5,1.3,12.1,3.7c0.2,0.1,0.4,0.1,0.6-0.1c0,0,0,0,0,0
								c0.1-0.2,0.1-0.5-0.1-0.6c-3.6-2.5-8.1-3.9-12.5-3.9C309,176.1,308.8,176.2,308.8,176.5z"/>
							<path class="st18" d="M307.5,178.3C307.5,178.3,307.5,178.3,307.5,178.3c0,0-0.1,0.1-0.1,0.1c-0.1,0-0.2,0-0.3,0c0,0,0,0,0,0
								c0.1-0.2,0-0.4-0.1-0.6c-0.2-0.1-0.5-0.1-0.6,0.1c-2.5,4.2-5.8,7.8-9.7,10.7c-0.2,0.1-0.2,0.4-0.1,0.6
								c0.1,0.2,0.4,0.2,0.6,0.1c2.4-1.8,4.5-3.9,6.4-6.1c1.2-1.4,2.3-2.9,3.3-4.5c0,0.1,0,0.1,0,0.2c1.7,3.9,1.9,8.5,0.6,12.5
								c-0.1,0.2,0,0.5,0.3,0.5c0.2,0.1,0.3,0,0.5-0.1c0,0,0.1-0.1,0.1-0.1c1.3-4.1,1.2-8.6-0.4-12.6c3.2,2.7,5.6,6.4,6.9,10.3
								c0.1,0.2,0.3,0.3,0.5,0.3c0.1,0,0.1-0.1,0.2-0.1c0.1-0.1,0.1-0.3,0.1-0.4c-1.4-4.3-4.1-8.2-7.5-11
								C307.9,178.1,307.6,178.2,307.5,178.3z"/>
							<path class="st18" d="M295.9,182.8c3-1.4,6-2.6,9.2-3.7c0.1,0,0.1-0.1,0.2-0.1c0.1-0.1,0.1-0.3,0.1-0.4
								c-0.1-0.2-0.3-0.3-0.5-0.3c-3.1,1-6.3,2.3-9.3,3.7c-0.2,0.1-0.3,0.4-0.2,0.6C295.5,182.8,295.7,182.9,295.9,182.8z"/>
						</g>
					</g>
					<path class="st7" d="M302.8,178.4c0.6,1.7,2.4,2.9,4.2,2.8c1.8-0.1,3.5-1.4,3.9-3.2c0.5-1.8-0.3-3.8-1.8-5
						C305.9,170.5,301.6,174.9,302.8,178.4z"/>
				</g>
			</g>
			<g>
				<g>
					<g>
						<path class="st11" d="M69.2,202.5c-0.5,1.3-1.7,2.3-3,2.7c-2.2,0.8-4.8,0.2-6.4-1.4c-1.7-1.6-2.3-4.2-1.5-6.4
							c0.9-2.8,3.8-4.7,6.7-4.8c2.7-0.1,3.5,2.3,4,4.5C69.5,198.9,69.9,200.8,69.2,202.5z"/>
						<path class="st11" d="M64.4,185.7c-1.5,1.7-3.9,2.8-6,2c-1.1-0.4-2-1.2-2.7-2.1c-0.5-0.6-1-1.3-1.2-2.1
							c-0.4-1.5,0.2-3.2,1.4-4.3c1.2-1.1,2.7-1.6,4.3-1.7c1.2-0.1,2.4,0,3.6,0.3c1,0.2,2.5,0.6,3.1,1.5c0.6,1-0.1,2.2-0.5,3.1
							C65.8,183.6,65.2,184.8,64.4,185.7z"/>
						<path class="st11" d="M76.2,189.8c-1.1,2.4-1.1,5.6,0.8,7.6c1.5,1.6,3.8,2.2,6,2c1.5-0.1,3.1-0.6,4.3-1.6
							c1.2-1.1,1.8-2.8,1.9-4.4c0.1-2.2-0.6-4.4-2-6c-1.1-1.3-4-3.8-5.8-2.9C79.3,185.4,77.2,187.7,76.2,189.8z"/>
						<path class="st11" d="M75.2,168.8c-0.8,1.4-1.9,2.8-3.4,3.5c-2,1-4.7,0.8-6.5-0.6c-1.8-1.4-2.8-3.8-2.3-6.1
							c0.4-1.9,1.6-3.6,3.3-4.5c1.8-1,4-1.3,5.9-0.7c1.8,0.6,3.2,1.7,4.2,3.3C77.3,165.1,75.9,167.5,75.2,168.8z"/>
						<path class="st11" d="M94.7,175.1c-0.5,0.9-1,1.9-1.1,3c-0.2,1-0.1,2.2,0.4,3.1c0.5,1.1,1.5,1.9,2.6,2.4
							c2.1,1,4.7,1.2,6.6-0.1c1.2-0.8,1.9-2.1,2.3-3.4c0.4-1.3,0.4-2.8,0.2-4.2c-0.3-2.5-1.3-5.6-3.6-6.9c-1.9-1-3.6,1.1-4.7,2.3
							C96.3,172.6,95.4,173.8,94.7,175.1z"/>
						<path class="st11" d="M90.1,155c-1.7,0.9-3.7,1.4-5.7,1.2c-1.9-0.3-3.8-1.4-4.6-3.2c-0.8-1.8-0.4-4.1,0.8-5.6
							c1.3-1.5,3.3-2.4,5.3-2.3c2,0,3.9,0.9,5.5,2.2c0.8,0.7,1.4,1.4,2,2.3c0.4,0.5,1.2,1.5,1.1,2.2c-0.1,0.7-1.2,1.3-1.7,1.7
							C91.9,154,91,154.6,90.1,155z"/>
						<path class="st11" d="M106.2,148.1c-1.4,0.7-2.9,1.2-4.4,1.1c-1.8-0.1-3.5-1.2-4.4-2.8c-0.8-1.6-0.8-3.6,0.2-5.2
							s2.7-2.5,4.5-2.5c1.8,0,3.5,0.9,5,2c0.9,0.7,1.9,1.4,2.6,2.3c0.6,0.8,1.6,2.6,0.6,3.3c-0.5,0.4-1.3,0.5-1.8,0.7
							C107.7,147.3,107,147.7,106.2,148.1z"/>
						<path class="st11" d="M110.1,163.1c-1.7,1.3-3,3.6-2.4,5.7c0.4,1.7,1.8,2.9,3.2,3.8c1,0.7,2.1,1.4,3.3,1.1
							c0.9-0.2,1.5-0.8,2.1-1.5c1.2-1.6,1.9-3.6,1.9-5.7c0-1.2-0.2-2.3-0.7-3.4c-0.3-0.7-0.7-2-1.4-2.3c-0.7-0.3-2.1,0.4-2.8,0.6
							C112.2,161.9,111.1,162.4,110.1,163.1z"/>
					</g>
					<path class="st9" d="M101.3,144.2c0,0.2,0.2,0.5,0.4,0.5c5.7,0.2,11.4,2.2,16,5.6c-4.6,1.2-9,2.7-13.3,4.7
						c-6.4-3.4-13.8-4.7-21-3.5c-0.2,0-0.4,0.3-0.4,0.5c0,0.2,0.3,0.4,0.5,0.4c6.7-1.1,13.8,0,19.8,3.1c-5.1,2.4-10,5.4-14.5,8.8
						c-0.2,0.1-0.3,0.3-0.5,0.4c-7.4-2.3-15.8-1.2-22.3,3.1c-0.2,0.1-0.3,0.4-0.1,0.6c0.1,0.2,0.4,0.3,0.6,0.1
						c6.2-4,13.9-5.1,21-3.1c-4.4,3.5-8.4,7.5-11.9,11.8c-5,0.4-10,2-14.9,4.7c-0.2,0.1-0.3,0.4-0.2,0.6c0.1,0.2,0.4,0.3,0.6,0.2
						c4.5-2.5,9.1-4,13.7-4.5c-4.8,6-8.7,12.7-11.5,19.9c-0.1,0.2,0,0.5,0.2,0.6c0.2,0.1,0.5,0,0.6-0.2c3-7.4,7-14.3,12-20.5
						c0,0,0.1-0.1,0.1-0.1c0.8-1,1.7-2,2.6-3c2.4,5.9,3.2,12.6,2.1,18.9c0,0.2,0.1,0.5,0.4,0.5c0.2,0,0.5-0.1,0.5-0.4
						c1-5.6,0.5-11.5-1.2-16.9c-0.3-1-0.7-1.9-1.1-2.9c3-3.3,6.3-6.3,9.9-9c2.7-2.1,5.6-4,8.6-5.7c1.8,6.8,1.9,14.1,0.2,20.9
						c-0.1,0.2,0.1,0.5,0.3,0.5c0.2,0.1,0.5-0.1,0.5-0.3c1.8-7.1,1.7-14.5-0.2-21.6c0,0,0,0,0,0c0,0,0,0,0,0
						c5.5-3.1,11.3-5.5,17.4-7.2c0.4,5.8-1,11.8-4,16.8c-0.1,0.2-0.1,0.5,0.2,0.6c0.2,0.1,0.5,0.1,0.6-0.2
						c3.2-5.2,4.6-11.4,4.1-17.5c3.7-1,7.4-1.7,11.2-2.2c0.2,0,0.4-0.2,0.4-0.5c0,0,0-0.1,0-0.1c-0.1-0.2-0.3-0.3-0.5-0.3
						c-3.1,0.4-6.3,0.9-9.3,1.7c-4.9-3.8-10.9-6-17.1-6.2C101.5,143.8,101.3,143.9,101.3,144.2z"/>
				</g>
				<g>
					<path class="st3" d="M144.4,146.6c-1,5.3-4.1,10.2-8.3,13.5c-4.2,3.4-9.5,5.3-14.9,5.8c0.8-7,2.1-14.1,5.1-20.6
						c2.2-4.7,5.4-9,9.5-12.1c1.7-1.3,3.7-3,5.5-1c1.5,1.7,2.4,4.2,2.9,6.4C144.8,141.2,144.9,144,144.4,146.6z"/>
					<path class="st4" d="M121.4,165.9c5.4-6.2,9.7-12.2,13.1-18.2c2.9-5.1,5.1-10.3,6.7-15.5c-0.2-0.2-0.3-0.3-0.5-0.4
						c-1.5,5.2-3.8,10.4-6.7,15.6c-3.3,5.9-7.5,11.7-12.8,17.8c0,0.2-0.1,0.5-0.1,0.7C121.2,165.9,121.3,165.9,121.4,165.9z"/>
				</g>
				<g>
					<path class="st12" d="M157.8,138.3c2.5,5.8,4,12.2,3.4,18.5c-0.9,9.7-6.5,18.1-12,26.2c-5.9-8.8-9.4-19.3-10-29.9
						c-0.2-4.5,0-9,0.8-13.4c0.6-3.7,1.3-8.9,3.8-11.8C150.3,120.3,155.9,133.8,157.8,138.3z"/>
					<path class="st4" d="M145.7,126.3c1.9,18.5,2.8,37.1,2.9,55.6c0.2,0.3,0.4,0.7,0.7,1c0.1-0.2,0.2-0.3,0.3-0.5
						c-0.1-18.9-1.1-37.8-3-56.6C146.3,125.9,146,126.1,145.7,126.3z"/>
				</g>
				<g>
					<path class="st9" d="M98.2,107.1c-1.1,1.3-0.8,3.3,0.4,4.5c0.4,0.3,0.8,0.6,1.2,0.8l-10.3-1.3c-2.1-0.3-3.5,2-2.3,3.8
						c1.8,2.7,4.9,4.5,8.1,4.4c-5.5-0.1-11,0.4-16.4,1.7c-2.1,0.5-4.5,1.6-4.5,3.8c0,0.9,0.5,1.7,1.1,2.3c1.3,1.1,3,1.3,4.7,1.5
						c5,0.5,10,1,15.1,1.5c-2.3,0.4-4.8,0.9-6.6,2.3c-2.6,2.1-3.4,6.8,1.3,8c1,0.3,2.1,0.2,3.2,0l16.8-3.3c-2.8,1.5-5.8,3.2-7.2,6.3
						c-0.8,1.7-0.8,3.8,0.3,5.3c2.1,3,6.3,2.2,9.6,1.1c6.3-2.2,12.4-5.1,18-8.6c3.8-2.4,11.7-6.3,13.5-10.6c2-4.7-6.5-9.3-9.6-11.5
						c-9.5-6.5-20.4-11-31.8-12.8C101.2,105.9,99.3,105.8,98.2,107.1z"/>
					<path class="st10" d="M144.2,130.7c-5.2-1.6-10.4-2.9-15.7-4c-4-7.3-11-11.8-16.2-14.3c-4.6-2.2-9.5-3.7-14.5-5
						c-0.2,0.3-0.3,0.5-0.3,0.8c4.9,1.3,9.8,2.8,14.4,4.9c4.9,2.3,11.4,6.5,15.4,13.2c-5.9-1.2-11.9-2-17.8-2.6c0-0.1,0-0.1-0.1-0.2
						c-5.1-6.9-13.4-11.3-22-11.9c-0.2,0.2-0.4,0.5-0.5,0.9c8.3,0.5,16.4,4.6,21.5,11.2c-11.2-1-22.6-0.8-33.9,0.4
						c0,0.2-0.1,0.4-0.1,0.6c0,0.1,0,0.2,0,0.3c11.7-1.3,23.4-1.4,35-0.3c-1.9,4.7-6.5,8.5-12.4,10.3c-3.4,1-6.9,1.4-10.4,1.5
						c0,0.3,0,0.6,0.1,0.9c3.5-0.1,7.1-0.5,10.5-1.5c6.3-1.9,11.2-6,13.1-11.1c5.9,0.6,11.8,1.5,17.7,2.6c0.1,0,0.1,0.1,0.2,0
						c1.1,0.2,2.2,0.4,3.3,0.7c-8.6,8-18.3,14.7-28.9,19.8c0.1,0.2,0.2,0.4,0.3,0.5c0.1,0.1,0.1,0.1,0.2,0.2
						c10.8-5.3,20.6-12.1,29.4-20.3c3.7,0.9,7.4,1.8,11.1,2.9C143.9,131.2,144.1,130.9,144.2,130.7z"/>
				</g>
				<g>
					<path class="st5" d="M150.5,99.9c4.2-4,10.3-5.3,16-6.3c0.2,4.6,0.4,9.4-1.5,13.7c-1.5,3.5-4.4,6.4-7.9,7.9
						c-1.6,0.7-3.4,1.1-5.2,1.2c-1.4,0.1-4.5,0.2-5.6-0.7c-1-0.9-0.7-3.8-0.6-5c0.1-1.9,0.5-3.7,1.2-5.5
						C147.8,103.2,149,101.3,150.5,99.9z"/>
					<path class="st5" d="M161.8,111.3c4.8,0,9.5,1.4,13.4,4.2c-1.7,4.1-5.4,7.4-9.8,8.5c-4.3,1.1-9.1,0.2-12.6-2.6
						c-3.5-2.8-3.3-6.9,1-8.6C156.4,111.9,159.1,111.4,161.8,111.3z"/>
					<path class="st5" d="M144.8,100.8c-2.3-4.2-6.1-7.5-10.6-9.2c-0.8,3.5-1.5,7.2-1.1,10.8c0.3,3.6,1.7,7.2,4.3,9.7
						c1.9,1.8,9,5.2,9.8,0.9C147.9,108.9,146.8,104.3,144.8,100.8z"/>
					<path class="st5" d="M133.5,109.9c-5.4-0.1-10.8,1.9-14.8,5.6c3,2.2,6.1,4.5,9.6,6s7.4,2.3,11,1.5c2.2-0.5,4.2-1.6,5.9-3.1
						c0.8-0.7,1.5-1.5,2.1-2.4c0.9-1.3,0.5-1.5-0.6-2.5C143,111.8,138.3,110,133.5,109.9z"/>
					<path class="st5" d="M133.3,126.2c-2.7,4.2-3.7,9.3-2.9,14.2c3.5-1.1,7.1-2.3,10.3-4.3c3.2-2,5.9-4.8,7-8.4
						c0.6-1.9,0.6-4.1,0-6c-0.5-1.5-1.7-4.2-3.4-3.9C140,118.4,135.5,122.8,133.3,126.2z"/>
					<path class="st5" d="M161.5,127.1c1.8,4,1.6,8.6,0.9,12.9c-4-1.1-7.7-2.9-11-5.4c-1.8-1.3-3.4-2.9-4.5-4.8
						c-1-2-1.4-4.4-0.5-6.4c1.3-2.9,4.7-3.6,7.6-2.9C157.4,121.3,160.2,124,161.5,127.1z"/>
					<g>
						<path class="st6" d="M149.7,115.1c-0.2-0.1-0.3-0.4-0.1-0.6c3.4-5.2,7.4-10,11.8-14.4c0.2-0.2,0.5-0.2,0.6,0
							c0.2,0.2,0.2,0.5,0,0.6c-4.4,4.3-8.3,9.1-11.7,14.2C150.2,115.1,150,115.2,149.7,115.1C149.8,115.1,149.7,115.1,149.7,115.1z"
							/>
						<path class="st6" d="M150,117.4c-0.1-0.1-0.2-0.2-0.2-0.4c0-0.2,0.2-0.4,0.5-0.4c6.4,0.7,12.9,0.9,19.3,0.6
							c0.2,0,0.5,0.2,0.5,0.4c0,0.2-0.2,0.5-0.4,0.5c-6.5,0.3-13,0.1-19.4-0.6C150.1,117.5,150.1,117.5,150,117.4z"/>
						<path class="st6" d="M147.3,115.4C147.3,115.4,147.3,115.4,147.3,115.4c-4.7-5.7-8.6-11.8-11.8-18.3c-0.1-0.2,0-0.5,0.2-0.6
							c0.2-0.1,0.5,0,0.6,0.2c3.1,6.4,7,12.5,11.6,18c0.2,0.2,0.1,0.5-0.1,0.6C147.7,115.5,147.5,115.5,147.3,115.4z"/>
						<path class="st6" d="M124.8,115.9c-0.1-0.1-0.2-0.3-0.2-0.4c0-0.2,0.3-0.4,0.5-0.4c6.8,0.8,13.6,1.1,20.5,0.9
							c0.2,0,0.5,0.2,0.5,0.4c0,0.2-0.2,0.5-0.4,0.5c-6.9,0.2-13.8-0.1-20.6-0.9C125,116,124.9,115.9,124.8,115.9z"/>
						<path class="st6" d="M134.2,136.1C134.2,136.1,134.2,136.1,134.2,136.1c-0.2-0.2-0.3-0.5-0.1-0.6c4.4-5.6,8.5-11.5,12.2-17.5
							c0.1-0.2,0.4-0.3,0.6-0.1c0.2,0.1,0.3,0.4,0.1,0.6c-3.7,6.1-7.8,12-12.2,17.6C134.6,136.2,134.4,136.2,134.2,136.1z"/>
						<path class="st6" d="M159.9,135.5c-0.1,0-0.1-0.1-0.1-0.1c-3.4-5.7-7.4-11.1-11.9-16c-0.2-0.2-0.2-0.5,0-0.6
							c0.2-0.2,0.5-0.2,0.6,0c4.5,4.9,8.6,10.4,12,16.2c0.1,0.2,0.1,0.5-0.2,0.6C160.2,135.6,160.1,135.6,159.9,135.5z"/>
					</g>
					<path class="st7" d="M152.8,113.7c-0.8-1.2-2.2-2-3.6-2.1c-1.4-0.1-2.9,0.3-4.1,1.1c-1.2,0.8-2.3,2.1-2.6,3.5
						c-0.4,1.9,0.4,3.9,1.9,5.1c1.5,1.1,3.7,1.3,5.4,0.6C152.6,120.7,154.6,116.5,152.8,113.7z"/>
				</g>
			</g>
			<g>
				<g>
					<path class="st3" d="M84.5,323.8c-1.5-3.6-2.6-7.4-3.3-11.2c0.1,0,0.2,0,0.2-0.1c4.7-2.9,8.4-7.5,10.1-12.8
						c0.1-0.2,0-0.5-0.3-0.5c0,0,0,0,0,0c-0.2-0.1-0.5,0-0.5,0.3c-1.7,5-5.2,9.4-9.7,12.2c-0.1-0.8-0.3-1.7-0.4-2.5c0,0,0,0,0,0
						c0.1-0.2,0-0.4-0.1-0.5c-0.3-2.5-0.4-5-0.4-7.5c4-3.5,7.4-7.8,9.8-12.6c0.1-0.2,0-0.5-0.2-0.6c-0.2-0.1-0.5,0-0.6,0.2
						c-2.2,4.4-5.3,8.4-9,11.8c0.2-7.1,1.7-14.2,4.5-20.8c0.1-0.2,0-0.5-0.2-0.6c-0.2-0.1-0.5,0-0.6,0.2c-2.5,5.9-4,12.2-4.5,18.6
						c-3.7-2.7-6.1-7-6.4-11.6c0-0.2-0.2-0.4-0.5-0.4c-0.2,0-0.4,0.2-0.4,0.5c0.3,5,3,9.8,7.2,12.5c-0.2,3.2-0.1,6.5,0.2,9.7
						c-4.4-2.2-8-6.1-9.9-10.6c-0.1-0.2-0.3-0.3-0.6-0.2c-0.2,0.1-0.3,0.3-0.2,0.6c2.1,4.9,6,9,10.8,11.3c0.6,5.1,1.9,10.1,3.8,14.9
						c0,0.1,0.1,0.2,0.3,0.2c0.1,0,0.2,0,0.3,0C84.5,324.3,84.6,324,84.5,323.8z"/>
					<g>
						<g>
							<path class="st15" d="M85.1,277.1c-3.7-1.3-5.7,4.4-2,5.7C86.7,284.1,88.7,278.4,85.1,277.1z"/>
							<path class="st15" d="M73.4,283.6c-3.7-1.3-5.7,4.4-2,5.7C75.1,290.6,77.1,284.9,73.4,283.6z"/>
							<path class="st15" d="M70,296.2c-3.7-1.3-5.7,4.4-2,5.7C71.7,303.2,73.7,297.5,70,296.2z"/>
							<path class="st15" d="M89.1,286.7c-3.7-1.3-5.7,4.4-2,5.7C90.7,293.7,92.7,288,89.1,286.7z"/>
							<path class="st15" d="M93.2,301.8c0-0.4-0.1-0.8-0.3-1.1c-0.2-0.4-0.4-0.7-0.7-0.9c-0.3-0.3-0.6-0.5-1-0.6
								c-0.3-0.1-0.5-0.1-0.8-0.2c-0.5,0-1,0.1-1.5,0.3c-0.2,0.1-0.4,0.3-0.7,0.4c-0.4,0.4-0.7,0.8-0.9,1.3l-0.1,0.2
								c-0.2,0.4-0.2,0.8-0.1,1.2c0,0.4,0.1,0.8,0.3,1.1c0.2,0.4,0.4,0.7,0.7,0.9c0.3,0.3,0.6,0.5,1,0.6c0.3,0.1,0.5,0.1,0.8,0.2
								c0.5,0,1-0.1,1.5-0.3c0.2-0.1,0.4-0.3,0.7-0.4c0.4-0.4,0.7-0.8,0.9-1.3l0.1-0.2C93.2,302.6,93.2,302.2,93.2,301.8z"/>
						</g>
					</g>
				</g>
				<g>
					<path class="st16" d="M110.8,343.9c0.6-2.7-0.4-5.6-2.3-7.7c2.7-0.6,4.7-2.8,5.6-5.4c0.9-2.6,0.6-5.4-0.1-8
						c-1-3.6-3.2-7.1-6.7-8.3c-2.2-0.7-4.6-0.4-6.7,0.5c-1.3-1.1-2.7-1.9-4.3-2.3c-3.2-0.8-7.2,0.5-8.6,3.5c0.2-0.8-0.2-1.7-0.8-2.3
						c-0.8-0.7-1.9-1-3-1.1c-2.8-0.2-5.8,0.6-8,2.4c-2.2,1.9-3.4,4.9-2.9,7.7c0.5,2.8,2.9,5.3,5.7,5.6c-1.9,0.3-3.7,1.5-4.8,3.1
						c-1.1,1.6-1.6,3.6-1.5,5.6c0.1,2.9,1.4,5.9,3.9,7.3c2.5,1.4,6.2,0.8,7.6-1.6c-0.5,3.5-0.9,7.5,1.4,10.2
						c2.3,2.7,6.7,3.1,9.7,1.1c3-2,4.4-5.8,4.1-9.3c0.4,2.7,3.4,4.7,6.1,4.4C107.9,348.9,110.2,346.6,110.8,343.9z"/>
					<g>
						<path class="st17" d="M81.9,339.6c-1.7-1.4-2.6-3.5-2.5-5.7c0.1-2.2,1.4-4.3,3.4-5.5c0.3-0.2,0.7-0.1,0.8,0.2
							c0.2,0.3,0.1,0.7-0.2,0.8c-1.6,0.9-2.7,2.7-2.8,4.5c-0.1,1.8,0.7,3.7,2.2,4.8c0.8,0.6,2,1.1,3.1,0.7c0.3-0.1,0.7,0,0.8,0.3
							c0.1,0.3,0,0.7-0.3,0.8c-1.3,0.5-2.9,0.2-4.3-0.8C82,339.7,82,339.6,81.9,339.6z"/>
						<path class="st17" d="M89.7,339.8c-1-0.8-1.7-1.8-2.2-3c-0.1-0.3,0-0.7,0.3-0.8c0.3-0.1,0.7,0,0.8,0.3
							c0.5,1.3,1.6,2.4,2.8,3.1c1.2,0.7,2.8,0.9,4.1,0.6c0.6-0.1,1.2-0.4,1.5-0.7c0.4-0.3,0.7-0.8,0.7-1.2c0-0.3,0.3-0.6,0.7-0.6
							c0.3,0,0.6,0.3,0.6,0.7c-0.1,0.8-0.5,1.5-1.2,2.1c-0.5,0.4-1.2,0.7-2.1,0.9c-1.7,0.3-3.5,0.1-5-0.7
							C90.5,340.3,90.1,340.1,89.7,339.8z"/>
						<path class="st17" d="M104.6,333.7c-0.1-0.1-0.2-0.2-0.2-0.3c-0.1-0.3,0.1-0.7,0.5-0.7c1.3-0.3,2.4-1,3.3-1.9
							c0.9-1,1.4-2.2,1.6-3.5c0.2-1.3-0.1-2.8-0.8-4c-0.6-1.2-1.6-2.3-2.8-3.1c-1-0.7-2-1.2-3.1-1.3c-1.1-0.2-2.2,0.1-3,0.6
							c-0.3,0.2-0.7,0.1-0.9-0.2c-0.2-0.3-0.1-0.7,0.2-0.9c1.1-0.7,2.5-1,3.9-0.8c1.2,0.2,2.4,0.7,3.6,1.5c1.4,1,2.5,2.2,3.2,3.6
							c0.8,1.5,1.1,3.2,0.9,4.7c-0.2,1.5-0.9,3-1.9,4.2c-1,1.1-2.4,2-4,2.3C104.9,333.9,104.8,333.8,104.6,333.7z"/>
						<path class="st17" d="M89.2,322.2c-0.2-0.1-0.3-0.4-0.2-0.6c0.5-1.6,1.8-2.8,3.3-3.2c1.6-0.4,3.3,0.1,4.5,1.2
							c0.2,0.2,0.2,0.6,0,0.9c-0.2,0.2-0.6,0.2-0.9,0c-0.9-0.8-2.2-1.2-3.3-0.9c-1.2,0.3-2.1,1.2-2.5,2.4c-0.1,0.3-0.4,0.5-0.8,0.4
							C89.4,322.3,89.3,322.3,89.2,322.2z"/>
						<path class="st17" d="M78.8,324.2C78.8,324.2,78.8,324.2,78.8,324.2c-1.2-1.3-1.7-3-1.4-4.4c0.3-1.7,1.7-3,3.3-3.2
							c1.4-0.2,2.6,0.4,3.7,1.1c0.3,0.2,0.4,0.5,0.2,0.8c-0.2,0.3-0.5,0.4-0.8,0.2c-0.9-0.6-2-1.1-3-0.9c-1.1,0.1-2,1.1-2.3,2.2
							c-0.2,1.1,0.2,2.4,1,3.3c0.2,0.3,0.2,0.6,0,0.9C79.4,324.4,79.1,324.4,78.8,324.2z"/>
						<path class="st17" d="M92.6,334.4C92.6,334.4,92.6,334.3,92.6,334.4c-0.3-0.3-0.4-0.7-0.1-0.9c0.2-0.3,0.6-0.3,0.9-0.1
							c0.6,0.5,1.7,0.7,2.7,0.5c0.9-0.3,1.7-0.9,2.4-1.7c0.7-0.8,1.2-1.8,1.7-2.8c0.2-0.3,0.5-0.4,0.8-0.3c0.3,0.2,0.4,0.5,0.3,0.8
							c-0.5,1-1.1,2.1-1.9,3c-0.9,1.1-1.9,1.8-3,2.1C95,335.4,93.6,335.2,92.6,334.4z"/>
						<path class="st17" d="M88.2,348.7c-0.1-0.1-0.3-0.2-0.4-0.3c-0.8-0.8-1.5-2.1-0.9-3.3c0.1-0.3,0.5-0.4,0.8-0.3
							c0.3,0.1,0.4,0.5,0.3,0.8c-0.3,0.6,0.1,1.4,0.7,1.9c0.8,0.8,1.9,1.3,3.1,1.3c1.1,0,2.3-0.4,3.1-1.2c0.2-0.2,0.6-0.2,0.9,0
							c0.2,0.2,0.2,0.6,0,0.9c-1.1,1-2.5,1.5-4,1.5C90.5,349.9,89.2,349.5,88.2,348.7z"/>
						<path class="st17" d="M100.6,343.1c-0.2-0.2-0.3-0.5-0.2-0.8c0.2-0.3,0.5-0.4,0.8-0.3c0.9,0.5,2.1,0.3,2.8-0.4
							c0.7-0.7,0.9-1.9,0.4-2.8c-0.2-0.3-0.1-0.7,0.2-0.8c0.3-0.2,0.7,0,0.8,0.2c0.7,1.4,0.5,3.1-0.6,4.2c-1.1,1.1-2.9,1.4-4.2,0.7
							C100.7,343.1,100.6,343.1,100.6,343.1z"/>
					</g>
					<path class="st7" d="M92.8,326.7c-1.8-1.5-4.1,1.4-2.3,2.9C92.3,331,94.7,328.2,92.8,326.7z"/>
					<path class="st7" d="M97.7,324.2c-1.8-1.5-4.1,1.4-2.3,2.9C97.2,328.5,99.5,325.7,97.7,324.2z"/>
					<path class="st7" d="M97.2,328.8c-1.8-1.5-4.1,1.4-2.3,2.9C96.7,333.1,99,330.3,97.2,328.8z"/>
				</g>
				<g>
					<g>
						<path class="st12" d="M161.1,373.6c1.3,0.1,2.6,0.9,3.4,2c1.3,1.8,1.5,4.4,0.5,6.4c-1,2-3.3,3.3-5.5,3.2
							c-2.8-0.1-5.4-2.3-6.4-4.9c-0.9-2.5,1.1-3.9,3.1-5C157.6,374.5,159.3,373.5,161.1,373.6z"/>
						<path class="st12" d="M146.8,382.8c2,0.9,3.7,2.9,3.6,5c-0.1,1.1-0.6,2.2-1.2,3.1c-0.4,0.7-0.9,1.3-1.6,1.7
							c-1.3,0.8-3,0.7-4.4-0.1c-1.3-0.8-2.2-2.1-2.8-3.5c-0.4-1.1-0.7-2.2-0.8-3.4c-0.1-1-0.2-2.5,0.6-3.3c0.7-0.8,2.1-0.5,3-0.4
							C144.5,382.1,145.7,382.3,146.8,382.8z"/>
						<path class="st12" d="M147.3,370.7c2.6,0.4,5.5-0.6,6.8-2.8c1.1-1.8,0.9-4.2,0.2-6.2c-0.5-1.4-1.4-2.7-2.7-3.5
							c-1.4-0.8-3.1-0.9-4.6-0.5c-2,0.5-3.9,1.8-5,3.5c-0.9,1.3-2.4,4.8-1.1,6.2C142.4,369.1,145.1,370.4,147.3,370.7z"/>
						<path class="st12" d="M128.1,377.6c1.6,0.3,3.1,1,4.2,2.2c1.5,1.6,2,4.1,1.3,6.2c-0.8,2.1-2.8,3.6-5,3.9
							c-1.9,0.2-3.8-0.5-5.1-1.8c-1.4-1.4-2.3-3.3-2.3-5.3c0-1.8,0.7-3.4,1.9-4.8C124.1,376.6,126.6,377.2,128.1,377.6z"/>
						<path class="st12" d="M128.5,357.6c1,0.2,2.1,0.3,3.1,0.2c1-0.1,2-0.5,2.8-1.2c0.9-0.8,1.3-2,1.5-3.1c0.4-2.2-0.2-4.7-1.9-6.1
							c-1.1-0.9-2.4-1.2-3.8-1.2c-1.4,0-2.7,0.4-3.9,0.9c-2.2,1-4.9,2.8-5.4,5.3c-0.4,2,2,3,3.5,3.7
							C125.7,356.9,127.1,357.3,128.5,357.6z"/>
						<path class="st12" d="M111.1,367.5c1.3,1.4,2.4,3.1,2.7,5c0.3,1.9-0.3,4-1.7,5.2c-1.5,1.3-3.7,1.5-5.5,0.8
							c-1.8-0.7-3.1-2.4-3.6-4.3c-0.5-1.9-0.3-3.9,0.5-5.7c0.4-0.9,0.9-1.7,1.5-2.5c0.4-0.5,1.1-1.5,1.8-1.6c0.7-0.1,1.5,0.8,2,1.1
							C109.7,366.1,110.4,366.8,111.1,367.5z"/>
						<path class="st12" d="M100.2,354.5c1,1.1,1.9,2.3,2.3,3.8c0.4,1.7-0.2,3.6-1.4,4.8s-3.2,1.7-4.9,1.3c-1.7-0.4-3.1-1.8-3.6-3.5
							c-0.5-1.7-0.1-3.5,0.5-5.2c0.4-1.1,0.8-2.1,1.4-3c0.6-0.7,1.9-2.2,2.9-1.5c0.5,0.4,0.8,1.1,1.2,1.5
							C99.1,353.3,99.6,353.9,100.2,354.5z"/>
						<path class="st12" d="M113,346.6c1.7,1.3,4.2,1.7,6,0.6c1.4-0.9,2.1-2.5,2.7-4.1c0.4-1.1,0.7-2.3,0.1-3.3
							c-0.4-0.7-1.2-1.2-2-1.5c-1.8-0.7-3.9-0.7-5.8-0.2c-1.1,0.3-2.1,0.9-3,1.6c-0.5,0.4-1.6,1.2-1.7,2c-0.1,0.8,0.9,1.9,1.4,2.4
							C111.3,345.1,112.1,346,113,346.6z"/>
					</g>
					<path class="st19" d="M97.9,360.1c0.2-0.1,0.4-0.3,0.3-0.5c-1.4-5.4-1.1-11.2,0.8-16.4c2.4,3.9,5.1,7.6,8.1,11
						c-1.4,6.9-0.5,14.2,2.6,20.5c0.1,0.2,0.4,0.3,0.6,0.2c0.2-0.1,0.3-0.4,0.2-0.6c-2.9-6-3.8-12.8-2.6-19.3
						c3.7,4.1,7.8,7.8,12.2,11c0.2,0.1,0.3,0.2,0.5,0.3c-0.1,7.6,3.3,15,9.1,19.9c0.2,0.2,0.5,0.1,0.6,0c0.2-0.2,0.1-0.5,0-0.6
						c-5.4-4.6-8.7-11.5-8.8-18.6c4.5,3.1,9.3,5.7,14.3,7.8c1.8,4.6,4.6,8.8,8.5,12.6c0.2,0.2,0.4,0.2,0.6,0c0.2-0.2,0.2-0.4,0-0.6
						c-3.6-3.5-6.3-7.4-8-11.5c6.9,2.7,14.3,4.5,21.7,5.1c0.2,0,0.4-0.2,0.5-0.4c0-0.2-0.2-0.4-0.4-0.5c-7.7-0.7-15.3-2.5-22.4-5.4
						c0,0-0.1,0-0.1-0.1c-1.2-0.5-2.4-1-3.6-1.6c4.8-3.9,10.8-6.5,17-7.2c0.2,0,0.4-0.2,0.4-0.5c0-0.2-0.2-0.4-0.5-0.4
						c-5.5,0.7-10.8,2.7-15.3,5.9c-0.8,0.6-1.6,1.2-2.4,1.8c-3.9-1.9-7.6-4.1-11.2-6.7c-2.7-2-5.3-4.1-7.7-6.4
						c5.8-3.6,12.6-5.7,19.4-6c0.2,0,0.4-0.2,0.4-0.5c0-0.2-0.2-0.4-0.5-0.4c-7.1,0.3-14,2.5-20,6.2c0,0,0,0,0,0c0,0,0,0,0,0
						c-4.4-4.2-8.3-9-11.5-14.1c5.3-2,11.2-2.4,16.7-1c0.2,0.1,0.5-0.1,0.5-0.3c0.1-0.2-0.1-0.5-0.3-0.5c-5.7-1.5-11.9-1.1-17.4,1.1
						c-1.9-3.1-3.7-6.4-5.1-9.8c-0.1-0.2-0.3-0.3-0.6-0.2c0,0-0.1,0-0.1,0c-0.2,0.1-0.2,0.3-0.2,0.5c1.2,2.8,2.6,5.6,4.2,8.2
						c-2.1,5.6-2.5,11.8-1,17.6C97.4,360,97.7,360.2,97.9,360.1z"/>
				</g>
			</g>
			<g>
				<g>
					<path class="st12" d="M642.2,153.7c-1.4-2.9-2.4-5.9-3.2-8.9c0.1,0,0.1,0,0.2-0.1c3.7-2.6,6.4-6.5,7.6-10.8
						c0.1-0.2-0.1-0.4-0.2-0.4c0,0,0,0,0,0c-0.2-0.1-0.4,0.1-0.4,0.2c-1.1,4.1-3.8,7.9-7.3,10.4c-0.2-0.7-0.3-1.4-0.4-2c0,0,0,0,0,0
						c0.1-0.1,0-0.3-0.1-0.4c-0.4-2-0.6-4-0.7-6.1c3.1-3,5.6-6.7,7.4-10.7c0.1-0.2,0-0.4-0.2-0.5c-0.2-0.1-0.4,0-0.5,0.2
						c-1.6,3.7-3.9,7.1-6.7,10c-0.1-5.8,0.7-11.6,2.7-17.1c0.1-0.2,0-0.4-0.2-0.5c-0.2-0.1-0.4,0-0.5,0.2
						c-1.8,4.9-2.7,10.1-2.8,15.3c-3.1-2-5.3-5.4-5.7-9.1c0-0.2-0.2-0.3-0.4-0.3c-0.2,0-0.3,0.2-0.3,0.4c0.5,4,2.9,7.8,6.4,9.9
						c0,2.6,0.2,5.3,0.7,7.9c-3.7-1.6-6.8-4.5-8.5-8.1c-0.1-0.2-0.3-0.2-0.5-0.2c-0.2,0.1-0.2,0.3-0.2,0.5c1.9,3.9,5.3,7,9.3,8.7
						c0.8,4.1,2,8.1,3.8,11.9c0,0.1,0.1,0.2,0.2,0.2c0.1,0,0.2,0,0.2,0C642.2,154.1,642.2,153.9,642.2,153.7z"/>
					<g>
						<g>
							<path class="st5" d="M640.4,115.7c-3-0.9-4.4,3.9-1.4,4.7C642.1,121.3,643.5,116.6,640.4,115.7z"/>
							<path class="st5" d="M631.3,121.6c-3-0.9-4.4,3.9-1.4,4.7C632.9,127.2,634.3,122.4,631.3,121.6z"/>
							<path class="st5" d="M629.1,131.9c-3-0.9-4.4,3.9-1.4,4.7C630.8,137.6,632.2,132.8,629.1,131.9z"/>
							<path class="st5" d="M644.1,123.4c-3-0.9-4.4,3.9-1.4,4.7C645.8,129,647.2,124.3,644.1,123.4z"/>
							<path class="st5" d="M648.2,135.4c0-0.3-0.1-0.6-0.3-0.9c-0.1-0.3-0.4-0.5-0.6-0.7c-0.2-0.2-0.5-0.4-0.9-0.5
								c-0.2,0-0.4-0.1-0.7-0.1c-0.4,0-0.8,0.1-1.2,0.3c-0.2,0.1-0.3,0.2-0.5,0.4c-0.3,0.3-0.5,0.7-0.7,1.1l-0.1,0.2
								c-0.1,0.3-0.1,0.6-0.1,1c0,0.3,0.1,0.6,0.3,0.9c0.1,0.3,0.4,0.5,0.6,0.7c0.2,0.2,0.5,0.4,0.9,0.5c0.2,0,0.4,0.1,0.7,0.1
								c0.4,0,0.8-0.1,1.2-0.3c0.2-0.1,0.3-0.2,0.5-0.4c0.3-0.3,0.5-0.7,0.7-1.1l0.1-0.2C648.2,136,648.2,135.7,648.2,135.4z"/>
						</g>
					</g>
				</g>
				<g>
					<path class="st3" d="M622,134.5c-1,0.4-1.5,1.5-1.2,2.6c0.1,0.3,0.2,0.6,0.4,0.8l-5.2-4.1c-1.1-0.8-2.6,0-2.5,1.3
						c0.1,2.1,1.2,4.1,3.1,5.1c-3-1.9-6.2-3.4-9.6-4.4c-1.3-0.4-3-0.6-3.7,0.6c-0.3,0.5-0.3,1.1-0.1,1.6c0.4,1.1,1.2,1.7,2.1,2.4
						c2.6,1.9,5.2,3.8,7.8,5.8c-1.4-0.5-2.9-1.1-4.4-0.9c-2.1,0.3-4.1,2.6-1.9,4.8c0.5,0.5,1.1,0.8,1.8,1.1l10.3,3.6
						c-2.1-0.1-4.2-0.1-6,1.1c-1,0.7-1.6,1.8-1.6,3c0.2,2.4,2.8,3.3,4.9,3.7c4.2,0.8,8.5,1.2,12.8,1.1c2.9-0.1,8.5,0.3,10.9-1.4
						c2.6-1.9-0.5-7.3-1.6-9.5c-3.1-6.7-7.7-12.7-13.4-17.4C624.1,134.9,623.1,134.2,622,134.5z"/>
					<path class="st4" d="M639.8,162.6c-2.3-2.5-4.8-5-7.4-7.3c0.2-5.4-2.2-10.1-4.3-13.2c-1.8-2.7-4.1-5.1-6.4-7.5
						c-0.2,0.1-0.3,0.2-0.5,0.3c2.3,2.3,4.5,4.7,6.3,7.4c1.9,2.9,4.2,7.3,4.2,12.3c-2.9-2.6-5.9-5-9-7.2c0,0,0-0.1,0-0.1
						c-0.6-5.4-3.8-10.6-8.3-13.8c-0.2,0.1-0.4,0.2-0.6,0.3c4.4,3,7.5,7.9,8.2,13.2c-5.9-4.2-12.2-7.8-18.8-10.8
						c-0.1,0.1-0.1,0.2-0.2,0.3c0,0.1-0.1,0.1-0.1,0.2c6.9,3.1,13.4,6.9,19.4,11.2c-2.6,2-6.4,2.6-10.2,1.6
						c-2.2-0.5-4.3-1.5-6.2-2.6c-0.1,0.2-0.2,0.3-0.2,0.5c2,1.1,4.1,2.1,6.3,2.6c4.1,1,8.2,0.3,10.8-1.8c3.1,2.3,6,4.7,8.9,7.2
						c0,0,0.1,0.1,0.1,0.1c0.5,0.5,1.1,1,1.6,1.5c-7.4,1.6-14.9,2.1-22.4,1.5c0,0.1,0,0.3,0,0.4c0,0.1,0,0.1,0,0.2
						c7.7,0.6,15.3,0,22.9-1.6c1.8,1.7,3.5,3.4,5.2,5.2C639.5,162.8,639.6,162.7,639.8,162.6z"/>
				</g>
				<g>
					<path class="st14" d="M634.1,151.6c-1-3.2-0.7-6.9,1.4-9.5c2.1-2.6,6-3.8,8.9-2.2c2.2,1.2,3.5,3.8,3.5,6.3
						c0.1,4.1-2.7,8.8-5.9,11.2C638,160.4,635.1,154.9,634.1,151.6z"/>
					<path class="st14" d="M628.5,148.3c-2.3-1-5.1-1.1-7.3,0.1s-3.8,3.7-3.5,6.2c0.2,1.7,1.2,3.2,2.6,4.3c1.3,1.1,2.9,1.9,4.5,2.5
						c3.4,1.4,8.6,2.7,11.5-0.4c2.5-2.7-0.9-6.8-2.7-8.9C632.2,150.5,630.5,149.1,628.5,148.3z"/>
					<path class="st14" d="M625.9,168.5c-0.8,1.6-1.4,3.5-1,5.3c0.3,1.8,1.6,3.5,3.4,4c1.6,0.4,3.4-0.2,4.8-1.1
						c2.5-1.6,4.5-4,5.7-6.7c0.8-1.9,2.7-7.8-0.5-8.5c-2.9-0.6-6.5,1.1-8.7,2.9C628,165.4,626.8,166.8,625.9,168.5z"/>
					<path class="st14" d="M643,175c1.1,1.3,2.6,2.3,4.2,2.7s3.6-0.2,4.5-1.6c1.1-1.6,0.7-3.9,0.1-5.8c-0.9-2.4-2.1-4.8-4-6.5
						c-1.7-1.4-5.4-3.1-7.5-1.4c-2,1.6-0.8,6-0.1,8C640.9,172.2,641.8,173.7,643,175z"/>
					<path class="st14" d="M658.4,155.1c-0.2-1.8-0.8-3.7-2.2-4.9c-1.8-1.5-4.4-1.6-6.6-0.8c-4.2,1.4-7.2,5.7-7.2,10.1l0.6-1.9
						c-0.7,2.3,0.6,5.1,2.8,6.1c1.5,0.7,3.3,0.5,4.9,0.3c2.7-0.4,5.6-1.2,7-3.5C658.6,158.8,658.7,156.8,658.4,155.1z"/>
					<g>
						<path class="st6" d="M638.1,159.3l1.2-0.7c-1.6-1.4-3.3-2.9-5.1-4.1c-1.8-1.2-3.8-2.3-5.9-2.8c-1-0.3-2.1-0.4-2.9,0.2
							c-0.8,0.6-1,1.7-0.8,2.6c0.2,0.9,0.8,1.7,1.5,2.4c1.5,1.5,3.5,2.6,5.6,3C633.8,160.2,636.1,160,638.1,159.3z"/>
						<path class="st6" d="M644.9,145.9c-0.4-1.4-1.4-2.6-2.8-3c-1.2-0.3-2.5,0.1-3.4,1c-0.5,0.6-0.9,1.4-1.1,2.1
							c-0.5,1.6-0.6,3.3-0.5,4.9c0.1,1.5,0.5,2.9,1,4.2c0.3,0.7,0.6,1.3,1,1.9c0.5,0.8,0.7,1.1,1.4,0.4c2.1-2,3.6-4.6,4.3-7.4
							C645.2,148.8,645.3,147.3,644.9,145.9z"/>
						<path class="st6" d="M653.9,155.1c-0.6-1.3-2.1-1.9-3.6-1.9s-2.7,0.7-4,1.3c-0.8,0.4-1.6,0.9-2.4,1.4c-0.7,0.4-1.3,0.9-2,1.4
							c-0.4,0.3-1.4,0.9-1.2,1.5c0.2,0.6,1.1,1.1,1.6,1.4c0.6,0.3,1.2,0.6,1.9,0.7c1.6,0.4,3.2,0.3,4.8,0.2c1.4-0.1,2.8-0.2,3.9-1
							c0.9-0.8,1.3-2,1.4-3.1C654.3,156.4,654.2,155.7,653.9,155.1z"/>
						<path class="st6" d="M638.9,160.7c-0.3-0.1-0.8,0.3-1.1,0.4c-0.8,0.4-1.6,0.9-2.3,1.4c-1.5,1-2.9,2.3-4.1,3.6
							c-0.7,0.8-1.3,1.6-1.8,2.6c-0.4,0.9-0.6,2-0.4,3c0.1,0.7,0.5,1.3,1.1,1.5c0.5,0.2,1.1,0,1.6-0.3c1.9-0.9,3.4-2.4,4.5-4.2
							c1.1-1.7,2-3.7,2.7-5.6c0.2-0.5,0.4-1,0.3-1.5C639.5,161.4,639.3,160.8,638.9,160.7z"/>
						<path class="st6" d="M644.1,163.3c-0.6-0.5-2.2-2.3-3-1.9c-0.9,0.5,0,3.1,0.2,3.9c0.4,1.7,1,3.3,1.8,4.9
							c0.6,1.3,1.4,2.6,2.6,3.4c0.5,0.3,1,0.6,1.6,0.5c0.8-0.1,1.5-0.9,1.6-1.7c0.1-0.8-0.1-1.7-0.4-2.5
							C647.5,167.4,646,165.2,644.1,163.3z"/>
					</g>
					<path class="st7" d="M635.5,160.2c0.4,1.7,1.9,3.1,3.7,3.4c1.7,0.3,3.6-0.5,4.6-1.9c1.8-2.4,0.5-6.1-2.7-6.2
						C638.3,155.3,634.7,156.6,635.5,160.2z"/>
				</g>
			</g>
			<g>
				<g>
					<path class="st13" d="M220.2,154.9c4.4-1,9.1-1.2,13.5,0c6.7,1.9,11.9,7,16.9,11.9c-7,3-14.8,4.1-22.4,3.1
						c-3.2-0.4-6.3-1.2-9.3-2.3c-2.5-0.9-6.1-2.1-7.8-4.2C206.5,157.9,216.8,155.7,220.2,154.9z"/>
					<path class="st10" d="M210.1,161.9c13.3,1.1,26.5,2.8,39.6,5.2c0.3-0.1,0.5-0.2,0.8-0.3c-0.1-0.1-0.2-0.2-0.3-0.3
						c-13.3-2.4-26.8-4.2-40.3-5.3C210,161.4,210,161.7,210.1,161.9z"/>
				</g>
				<g>
					<path class="st11" d="M205.4,158.8c0.6-3.5,1.6-6.9,2.9-10.1c0.1,0,0.1,0.1,0.2,0.1c5,0,10-1.8,13.9-4.9
						c0.2-0.1,0.2-0.4,0.1-0.5c0,0,0,0,0,0c-0.1-0.2-0.4-0.2-0.6-0.1c-3.7,3-8.5,4.7-13.3,4.7c0.3-0.7,0.6-1.4,0.9-2.1c0,0,0,0,0,0
						c0.1-0.1,0.2-0.3,0.2-0.4c1-2,2.1-4,3.3-5.9c4.7-0.7,9.4-2.5,13.5-4.9c0.2-0.1,0.2-0.4,0.1-0.5c-0.1-0.2-0.4-0.2-0.5-0.1
						c-3.8,2.3-8.1,3.9-12.5,4.7c3.6-5.3,8.1-10,13.4-13.7c0.2-0.1,0.2-0.4,0.1-0.5c-0.1-0.2-0.4-0.2-0.5-0.1
						c-4.8,3.3-8.9,7.4-12.3,12.1c-1.6-3.8-1.3-8.3,0.7-11.9c0.1-0.2,0-0.4-0.2-0.5c-0.2-0.1-0.4,0-0.5,0.2c-2.2,3.9-2.4,8.9-0.5,13
						c-1.7,2.4-3.2,4.9-4.5,7.6c-2.3-3.8-3.2-8.5-2.5-12.8c0-0.2-0.1-0.4-0.3-0.4c-0.2,0-0.4,0.1-0.4,0.3c-0.8,4.7,0.3,9.8,2.8,13.8
						c-2,4.2-3.4,8.6-4.2,13.2c0,0.1,0,0.2,0.1,0.3c0.1,0.1,0.1,0.1,0.2,0.1C205.2,159.2,205.4,159,205.4,158.8z"/>
					<g>
						<g>
							<path class="st5" d="M228.3,123.3c-2.2-2.8-6.5,0.6-4.3,3.4C226.2,129.5,230.5,126.1,228.3,123.3z"/>
							<path class="st5" d="M216.2,122.7c-2.2-2.8-6.5,0.6-4.3,3.4C214.1,128.9,218.4,125.5,216.2,122.7z"/>
							<path class="st5" d="M207.6,130.7c-2.2-2.8-6.5,0.6-4.3,3.4C205.5,136.9,209.8,133.5,207.6,130.7z"/>
							<path class="st5" d="M226.7,132.6c-2.2-2.8-6.5,0.6-4.3,3.4C224.6,138.8,228.9,135.4,226.7,132.6z"/>
							<path class="st5" d="M222.7,146.1c0.2-0.3,0.3-0.6,0.3-1c0.1-0.4,0-0.7-0.1-1c-0.1-0.4-0.2-0.7-0.5-1
								c-0.2-0.2-0.4-0.3-0.5-0.5c-0.4-0.3-0.8-0.5-1.3-0.5c-0.2,0-0.5,0-0.7,0c-0.5,0.1-0.9,0.3-1.3,0.6l-0.2,0.1
								c-0.3,0.2-0.5,0.5-0.7,0.8c-0.2,0.3-0.3,0.6-0.3,1c-0.1,0.4,0,0.7,0.1,1c0.1,0.4,0.2,0.7,0.5,1c0.2,0.2,0.4,0.3,0.5,0.5
								c0.4,0.3,0.8,0.5,1.3,0.5c0.2,0,0.5,0,0.7,0c0.5-0.1,0.9-0.3,1.3-0.6l0.2-0.1C222.3,146.7,222.5,146.4,222.7,146.1z"/>
						</g>
					</g>
				</g>
				<g>
					<path class="st16" d="M209.8,150.2c4.1-2.3,9.1-2.1,13.8-1.8c-0.8,3.7-1.6,7.4-3.9,10.4c-1.9,2.4-4.7,4.1-7.8,4.6
						c-1.4,0.2-2.9,0.2-4.3-0.1c-1.1-0.2-3.5-0.7-4.2-1.7c-0.6-0.9,0.2-3.1,0.5-4c0.5-1.4,1.2-2.8,2-4
						C207,152.3,208.3,151.1,209.8,150.2z"/>
					<path class="st16" d="M216.3,161.5c3.7,0.9,7.1,3,9.6,5.9c-2.2,2.9-5.7,4.7-9.3,4.7c-3.6,0-7.2-1.7-9.3-4.6
						c-2.1-2.8-1.2-6.1,2.5-6.5C212,160.8,214.2,160.9,216.3,161.5z"/>
					<path class="st16" d="M205.2,149.8c-1-3.7-3.3-7.1-6.5-9.3c-1.3,2.6-2.6,5.3-3,8.2c-0.5,2.9-0.1,6,1.4,8.5
						c1.1,1.7,6,5.8,7.4,2.7C205.9,156.8,206,153,205.2,149.8z"/>
					<path class="st16" d="M194.5,154.6c-4.2-1.2-8.8-0.7-12.7,1.4c1.9,2.4,3.9,4.7,6.3,6.6c2.4,1.9,5.3,3.3,8.3,3.4
						c1.8,0,3.6-0.4,5.2-1.2c0.8-0.4,1.5-0.9,2.1-1.5c0.9-0.8,0.7-1.1,0-2.1C201.5,158.1,198.2,155.7,194.5,154.6z"/>
					<path class="st16" d="M191.1,167.4c-2.9,2.7-4.8,6.5-5.1,10.5c3-0.2,6-0.4,8.9-1.3c2.9-0.9,5.6-2.6,7.1-5.2
						c0.8-1.4,1.3-3,1.2-4.7c-0.1-1.3-0.5-3.6-1.9-3.8C197.9,162.6,193.5,165.1,191.1,167.4z"/>
					<path class="st16" d="M212.9,173.7c0.6,3.5-0.5,7-1.9,10.3c-2.9-1.6-5.4-3.8-7.5-6.4c-1.1-1.4-2.1-2.9-2.5-4.7
						c-0.4-1.7-0.2-3.7,0.9-5.1c1.6-2,4.4-1.9,6.5-0.7C210.9,168.3,212.5,171,212.9,173.7z"/>
					<g>
						<path class="st17" d="M206.1,161.9c-0.1-0.1-0.1-0.4,0-0.5c3.7-3.4,7.8-6.4,12.1-8.9c0.2-0.1,0.4,0,0.5,0.1
							c0.1,0.2,0,0.4-0.1,0.5c-4.3,2.5-8.3,5.4-12,8.8C206.5,162.1,206.3,162.1,206.1,161.9C206.2,161.9,206.1,161.9,206.1,161.9z"
							/>
						<path class="st17" d="M205.9,163.9c-0.1-0.1-0.1-0.2-0.1-0.4c0.1-0.2,0.3-0.3,0.5-0.2c4.8,1.8,9.9,3.3,14.9,4.4
							c0.2,0,0.3,0.2,0.3,0.4c0,0.2-0.2,0.3-0.4,0.3c-5.1-1.1-10.2-2.6-15-4.4C206,163.9,205.9,163.9,205.9,163.9z"/>
						<path class="st17" d="M204.2,161.8C204.2,161.7,204.1,161.7,204.2,161.8c-2.5-5.4-4.4-10.9-5.6-16.6c0-0.2,0.1-0.4,0.3-0.4
							c0.2,0,0.4,0.1,0.4,0.3c1.2,5.6,3,11.2,5.4,16.4c0.1,0.2,0,0.4-0.2,0.5C204.5,161.9,204.3,161.9,204.2,161.8z"/>
						<path class="st17" d="M186.5,157.6c-0.1-0.1-0.1-0.2-0.1-0.4c0.1-0.2,0.3-0.3,0.5-0.2c5.1,2,10.4,3.6,15.8,4.8
							c0.2,0,0.3,0.2,0.3,0.4c0,0.2-0.2,0.3-0.4,0.3c-5.4-1.2-10.7-2.8-15.9-4.8C186.6,157.7,186.6,157.7,186.5,157.6z"/>
						<path class="st17" d="M189.8,175.3C189.8,175.2,189.8,175.2,189.8,175.3c-0.1-0.2-0.1-0.4,0-0.5c4.5-3.5,8.9-7.3,13-11.3
							c0.1-0.1,0.4-0.1,0.5,0c0.1,0.1,0.1,0.4,0,0.5c-4.1,4-8.5,7.8-13.1,11.3C190.1,175.4,189.9,175.4,189.8,175.3z"/>
						<path class="st17" d="M210,179.9c0,0-0.1-0.1-0.1-0.1c-1.5-5.1-3.6-10.1-6.1-14.9c-0.1-0.2,0-0.4,0.1-0.5
							c0.2-0.1,0.4,0,0.5,0.1c2.6,4.8,4.6,9.8,6.2,15c0.1,0.2-0.1,0.4-0.2,0.4C210.2,180.1,210.1,180,210,179.9z"/>
					</g>
					<path class="st7" d="M208.8,161.5c-0.4-1.1-1.3-2-2.4-2.4c-1.1-0.4-2.3-0.3-3.4,0.1c-1.1,0.4-2.2,1.2-2.7,2.2
						c-0.7,1.4-0.5,3.1,0.5,4.3c1,1.2,2.6,1.8,4.1,1.5C207.2,166.9,209.7,164,208.8,161.5z"/>
				</g>
			</g>
			<g>
				<g>
					<path class="st12" d="M762.9,345.7c2.8,5.7,4.6,12,4.3,18.3c-0.5,9.7-5.7,18.4-10.8,26.7c-6.3-8.6-10.2-18.8-11.3-29.4
						c-0.4-4.4-0.4-8.9,0.2-13.4c0.5-3.7,0.9-8.9,3.2-12C754.5,328.1,760.7,341.3,762.9,345.7z"/>
					<path class="st4" d="M750.2,334.2c2.7,18.4,4.5,36.9,5.4,55.4c0.2,0.3,0.5,0.7,0.7,1c0.1-0.2,0.2-0.3,0.3-0.5
						c-0.9-18.8-2.7-37.7-5.5-56.4C750.8,333.9,750.5,334,750.2,334.2z"/>
				</g>
				<g>
					<path class="st11" d="M750.3,335.9c3.8-2.4,7.9-4.4,12.1-6c0,0.1,0,0.2,0.1,0.3c4.2,4.7,10.3,8,16.5,8.9c0.3,0,0.5-0.1,0.6-0.4
						c0,0,0,0,0,0c0-0.3-0.1-0.5-0.4-0.6c-6-0.9-11.8-4-15.9-8.5c0.9-0.3,1.9-0.6,2.8-0.9c0,0,0,0,0.1,0c0.2,0.1,0.4,0,0.5-0.2
						c2.8-0.8,5.6-1.5,8.4-2c4.8,3.9,10.4,6.8,16.3,8.6c0.3,0.1,0.5-0.1,0.6-0.3c0.1-0.3-0.1-0.5-0.3-0.6
						c-5.5-1.6-10.7-4.3-15.2-7.8c8.1-1.2,16.5-0.9,24.5,1c0.3,0.1,0.5-0.1,0.6-0.4c0.1-0.3-0.1-0.5-0.4-0.6
						c-7.2-1.7-14.7-2.1-22-1.4c2.3-4.7,6.8-8.4,11.9-9.6c0.3-0.1,0.4-0.3,0.4-0.6c-0.1-0.3-0.3-0.4-0.6-0.4
						c-5.6,1.3-10.5,5.4-12.8,10.7c-3.7,0.4-7.4,1.2-11,2.2c1.7-5.4,5.3-10.3,10.1-13.4c0.2-0.1,0.3-0.5,0.1-0.7
						c-0.2-0.2-0.5-0.3-0.7-0.1c-5.2,3.3-9,8.6-10.7,14.5c-5.7,1.7-11.1,4.2-16.2,7.4c-0.1,0.1-0.2,0.2-0.2,0.3c0,0.1,0,0.2,0.1,0.3
						C749.7,336,750,336.1,750.3,335.9z"/>
					<g>
						<g>
							<path class="st15" d="M803.6,327.2c0.7-4.4-6.2-5.6-6.9-1.1C795.9,330.5,802.8,331.6,803.6,327.2z"/>
							<path class="st15" d="M793.8,315.3c0.7-4.4-6.2-5.6-6.9-1.1C786.1,318.6,793,319.7,793.8,315.3z"/>
							<path class="st15" d="M778.8,314c0.7-4.4-6.2-5.6-6.9-1.1C771.1,317.3,778.1,318.4,778.8,314z"/>
							<path class="st15" d="M793.4,333.7c0.7-4.4-6.2-5.6-6.9-1.1C785.7,337,792.6,338.1,793.4,333.7z"/>
							<path class="st15" d="M777.1,341.4c0.5-0.1,0.9-0.2,1.2-0.5c0.4-0.3,0.7-0.6,0.9-1c0.3-0.4,0.5-0.8,0.5-1.3
								c0-0.3,0-0.6,0-0.9c-0.1-0.6-0.3-1.2-0.6-1.7c-0.2-0.2-0.4-0.4-0.6-0.7c-0.5-0.4-1-0.7-1.7-0.8l-0.3,0
								c-0.5-0.1-0.9-0.1-1.4,0.1c-0.5,0.1-0.9,0.2-1.2,0.5c-0.4,0.3-0.7,0.6-0.9,1c-0.3,0.4-0.5,0.8-0.5,1.3c0,0.3,0,0.6,0,0.9
								c0.1,0.6,0.3,1.2,0.6,1.7c0.2,0.2,0.4,0.4,0.6,0.7c0.5,0.4,1,0.7,1.7,0.8l0.3,0C776.2,341.5,776.6,341.5,777.1,341.4z"/>
						</g>
					</g>
				</g>
				<g>
					<path class="st16" d="M763.9,312.1c-1.8-0.3-3.8,0.8-5.3-0.2c-0.9-0.5-1.5-1.7-2.5-1.9c-0.7-0.1-1.3,0.2-1.8,0.7
						c-0.5,0.5-0.8,1.1-1,1.7c-0.5,1.2-1,2.5-1.5,3.7c0-0.2,0-0.5,0-0.7c0-2-0.3-4-1.4-5.6c-1.1-1.6-3.3-2.7-5.1-1.9
						c-2.3,0.9-3,4.1-5.3,5.1c-1.4,0.7-3.3,0.4-4.5,1.4c-0.8,0.7-1,1.8-0.9,2.9c0.1,1,0.7,2,1.2,2.8c1.2,1.8,2.7,3.3,4.3,4.6
						c0.3,0.3,0.7,0.5,1,0.7c-1.8-0.4-3.6-0.6-5.4-0.7c-1,0-2,0-2.9,0.4c-0.9,0.4-1.7,1.3-1.6,2.3c0,1.1,1,2.1,1,3.2
						c0,1.7-1.9,2.6-2.7,4.1c-0.7,1.4-0.4,3.1,0.6,4.3c1,1.2,2.6,1.7,4.1,1.8c1.5,0,3.1-0.4,4.5-1c0.6-0.3,1.3-0.6,1.9-1
						c-0.9,1.4-1.7,3-1.6,4.6c0.1,1.9,1.6,3.7,3.4,4.2c1.5,0.4,3.1,0,4.5,0.6c1.7,0.7,2.6,2.6,4.3,3.2c1.6,0.5,3.5-0.5,4.4-1.9
						c0.9-1.5,1.1-3.3,1-5c-0.1-2.6-0.7-5.1-1.8-7.5c1.3,1.4,2.7,2.7,4.2,4c0.9,0.8,1.9,1.6,3.1,2c1.2,0.4,2.6,0.2,3.5-0.7
						c1.5-1.6,0.6-4.8,2.3-6.2c0.5-0.4,1.1-0.6,1.6-0.9c1.6-0.9,2.3-3.1,1.9-4.9c-0.4-1.8-1.9-3.3-3.5-4.1c-1.7-0.8-3.6-1.1-5.5-1.2
						c-0.4,0-0.8,0-1.2,0c0.3-0.2,0.5-0.3,0.8-0.5c1.5-1,3-2.1,4-3.6c1.1-1.5,1.7-3.3,1.3-5.1C767.1,314,765.7,312.4,763.9,312.1z
						 M749.3,329.2c-0.1-0.1-0.3-0.2-0.5-0.2c0,0,0,0-0.1,0c0.1-0.3,0.1-0.6,0.2-0.8c0.2-0.1,0.4-0.3,0.6-0.6
						c0.2-0.3,0.3-0.6,0.4-0.9c0.5,0.2,1,0.4,1.5,0.5c-0.2,0.1-0.5,0.2-0.7,0.4C749.9,328,749.4,328.6,749.3,329.2z"/>
					<g>
						<path class="st17" d="M746.7,316.7c-0.1-0.2-0.3-0.3-0.5-0.2c-0.2,0.1-0.3,0.3-0.2,0.5c1.2,2.8,2.1,5.8,2.6,8.9
							c-3.9-1.3-7.3-4.3-8.9-8.1c-0.1-0.2-0.3-0.3-0.5-0.2c-0.2,0.1-0.3,0.3-0.2,0.5c1.8,4.2,5.7,7.6,10.1,8.8c0.1,0,0.2,0,0.3,0
							c0.1-0.1,0.2-0.1,0.2-0.3c0-0.1,0-0.2,0-0.3c0,0,0,0,0,0C749,323,748.1,319.8,746.7,316.7z"/>
						<path class="st17" d="M764.7,316c-0.2-0.1-0.4-0.1-0.6,0.1c-1,1.7-2.1,3.4-3.5,4.9c-2.1,2.1-4.9,3.5-7.9,3.9
							c1.7-2.8,2.8-5.9,3.1-9.2c0-0.2-0.1-0.4-0.4-0.5c-0.2,0-0.4,0.1-0.5,0.4c-0.4,3.4-1.5,6.6-3.4,9.4c-0.1,0.1-0.1,0.1-0.1,0.2
							c-0.2,0.3-0.5,0.7-0.7,1c-0.1,0.2-0.1,0.4,0.1,0.6c0.1,0.1,0.3,0.1,0.4,0c0.1,0,0.1-0.1,0.1-0.1c0.2-0.3,0.5-0.7,0.7-1
							c1.8-0.1,3.6-0.6,5.2-1.4c1.4-0.7,2.7-1.7,3.8-2.8c1.5-1.5,2.5-3.3,3.6-5C764.9,316.4,764.9,316.1,764.7,316z"/>
						<path class="st17" d="M752.8,327.4c-0.2,0-0.4,0.2-0.4,0.4c0,0.2,0.2,0.4,0.4,0.4c3.9,0,7.9,0.8,11.5,2.3c0.1,0,0.2,0,0.3,0
							c0.1,0,0.2-0.1,0.2-0.2c0.1-0.2,0-0.4-0.2-0.5C760.9,328.2,756.8,327.4,752.8,327.4z"/>
						<path class="st17" d="M751.8,328.6c-0.1,0.2,0,0.4,0.2,0.5c3.8,1.6,7.1,4.5,9.3,8c0.1,0.2,0.3,0.2,0.5,0.2c0,0,0,0,0,0
							c0.2-0.1,0.3-0.4,0.1-0.6c-2.3-3.6-5.7-6.6-9.6-8.3C752.1,328.3,751.9,328.4,751.8,328.6z"/>
						<path class="st17" d="M749.9,329.7C749.9,329.7,749.9,329.7,749.9,329.7c-0.1,0-0.1,0.1-0.1,0.1c-0.1-0.1-0.2-0.1-0.3-0.1
							c0,0,0,0-0.1,0c0.2-0.1,0.2-0.4,0.1-0.5c-0.1-0.2-0.4-0.2-0.6-0.1c-3.9,2.7-8.2,4.7-12.8,5.8c-0.2,0.1-0.4,0.3-0.3,0.5
							c0.1,0.2,0.3,0.4,0.5,0.3c2.8-0.7,5.5-1.7,8.1-3c1.6-0.8,3.2-1.7,4.7-2.7c0,0.1-0.1,0.1-0.1,0.2c0,4.1-1.6,8.3-4.3,11.3
							c-0.1,0.2-0.1,0.4,0,0.6c0.1,0.1,0.3,0.1,0.5,0.1c0,0,0.1-0.1,0.1-0.1c2.8-3.1,4.4-7.2,4.5-11.4c1.8,3.6,2.5,7.8,2.2,11.9
							c0,0.2,0.1,0.4,0.4,0.4c0.1,0,0.2,0,0.2,0c0.1-0.1,0.2-0.2,0.2-0.3c0.4-4.3-0.5-8.8-2.4-12.7
							C750.3,329.7,750.1,329.6,749.9,329.7z"/>
						<path class="st17" d="M737.9,329.2c3.2-0.1,6.4,0,9.5,0.3c0.1,0,0.2,0,0.2,0c0.1-0.1,0.2-0.2,0.2-0.3c0-0.2-0.1-0.4-0.4-0.4
							c-3.2-0.3-6.4-0.4-9.6-0.3c-0.2,0-0.4,0.2-0.4,0.4C737.5,329.1,737.7,329.3,737.9,329.2z"/>
					</g>
					<path class="st7" d="M745.7,328c-0.1,1.7,1,3.5,2.6,4.1c1.6,0.6,3.6,0.1,4.7-1.3c1.1-1.4,1.2-3.5,0.3-5.2
						C751.5,322.2,745.9,324.4,745.7,328z"/>
				</g>
			</g>
		</g>
	</g>
	<g>
		<path class="st20" d="M164.8,331.7c-2,0-4.1-0.1-6.1-0.3c-9.7-1-23.9-6.8-32-19.7c-7.6-12.2-8.1-27.7-1.4-46.2
			c1.1-3.1,2.4-6.1,3.7-8.9c-5.6-6.1-9-13-10.6-19.4c-4-16,1.7-32.2,15.1-42.1c13.3-10,31.1-10.8,44.2-2c4.3,2.9,7.8,6.6,10.5,10.9
			c7.5-2.4,15-3.7,21.9-3.7c0,0,0.1,0,0.1,0c16.2,0,28,6.8,32.3,18.6c3.7,10.3,0.9,22.3-7.9,33.1c-11.7,14.3-35.7,27.9-68.2,23.1
			c-13.8-2-24.3-7.1-32-13.5c-0.9,2-1.7,4.1-2.5,6.2c-5.9,16.4-5.7,30,0.7,40.2c7.2,11.5,20.3,15.8,26.9,16.5
			c22.4,2.4,44.3-10.5,58.4-34.6c1-1.6,3.1-2.2,4.7-1.2c1.6,1,2.2,3.1,1.2,4.7C209.4,317.7,187.7,331.7,164.8,331.7z M137.4,255.1
			c6.9,6.2,16.7,11.1,29.9,13.1c29.7,4.4,51.4-7.8,61.9-20.6c7.2-8.9,9.7-18.5,6.8-26.4c-3.3-8.9-12.7-14.1-25.9-14.1
			c0,0-0.1,0-0.1,0c-5.9,0-12.3,1-18.8,3c3.8,9.7,4.1,21.9,0.6,35.4c-0.5,1.8-2.3,3-4.2,2.5c-1.8-0.5-3-2.3-2.5-4.2
			c3.1-12.2,2.8-22.9-0.5-31.4C166.7,219.6,148.7,234.1,137.4,255.1z M157.3,193.8c-6.9,0-13.9,2.2-19.8,6.7
			c-11.1,8.2-15.8,21.6-12.5,34.9c1.2,4.8,3.6,9.8,7.4,14.5c12-21.2,30.5-35.9,49.1-43.6c-2-3-4.6-5.5-7.7-7.6
			C168.9,195.5,163.2,193.8,157.3,193.8z"/>
		<path class="st20" d="M222.2,318.6c-0.9,0-1.8-0.1-2.7-0.3c-5.9-1.3-9-6.2-8.1-13.1c1.6-12.4,16.2-32.4,28.9-31.9
			c6.2,0.2,8.7,3.7,9.7,5.8c3.4,7.4-2.1,19.5-8.6,27.6C235.2,314.4,228.4,318.6,222.2,318.6z M239.9,280.1
			c-7.4,0-20.2,15.3-21.5,25.9c-0.6,4.8,1.5,5.3,2.7,5.5c3.9,0.9,9.8-2.8,15.1-9.3c6.7-8.3,9.2-17.1,7.7-20.4
			c-0.2-0.5-0.8-1.7-3.7-1.8c0,0,0,0,0,0C240,280.2,239.9,280.1,239.9,280.1z"/>
		<path class="st20" d="M598.3,318.6c-0.9,0-1.8-0.1-2.7-0.3c-5.9-1.3-9-6.2-8.1-13.1c1.6-12.2,15.8-31.9,28.4-31.9
			c0.2,0,0.3,0,0.5,0c6.2,0.2,8.7,3.7,9.7,5.8c3.4,7.4-2.1,19.5-8.6,27.6C611.2,314.4,604.4,318.6,598.3,318.6z M615.9,280.1
			c-7.4,0-20.2,15.3-21.5,25.9c-0.6,4.8,1.5,5.3,2.7,5.5c3.9,0.9,9.8-2.8,15.1-9.3c6.7-8.3,9.2-17.1,7.7-20.4
			c-0.2-0.5-0.8-1.7-3.7-1.8c0,0,0,0,0,0C616,280.2,615.9,280.1,615.9,280.1z"/>
		<path class="st20" d="M248.3,319.8c-0.5,0-1-0.1-1.5-0.3c-1.6-0.8-2.4-2.7-1.7-4.4c0.5-1.3,12-31.1,20.9-41.4
			c1.2-1.4,3.4-1.6,4.9-0.4c1.4,1.2,1.6,3.4,0.4,4.9c-2.5,2.9-5.4,7.8-8.1,13.1c10.5-10.3,20.6-15.7,25.2-16.8
			c1.4-0.3,3.3-0.6,5,0.5c3.5,2.3,1,6.9-0.6,9.9c-1.6,3-4,6.8-6.5,10.9c-2.5,4-6.1,9.7-8.2,13.8c3.9-3,9.7-8.4,15.1-14.4
			c1.3-1.4,3.5-1.5,4.9-0.2c1.4,1.3,1.5,3.5,0.2,4.9c-0.2,0.2-4.7,5.2-9.8,9.9c-8.6,8-13.4,10.4-16.9,8.4c-1-0.6-1.8-1.6-2.1-2.8
			c-1-3.7,2.4-9.7,10.9-23.3c1.8-3,4.1-6.5,5.7-9.4c-7.9,4-23.4,15.4-34.8,35.4C250.7,319.2,249.5,319.8,248.3,319.8z"/>
		<path class="st20" d="M686.4,370.9c-2.2,0-4.2-0.2-6.1-0.8c-10.1-2.8-28.5-14-25.9-36.1c1.3-11,10.1-21.1,25.3-29.3
			c1.7-0.9,3.4-1.7,5.1-2.6c-0.4-0.7-0.8-1.4-1.2-2c-0.4-0.6-0.7-1.3-1-1.9c-2.2,1.6-4.5,3.3-6.9,5c-6.6,4.8-12.1,8.5-16.3,11
			c-7.1,4.3-10.3,5.3-12.7,3.9c-1-0.6-1.8-1.6-2.1-2.8c-1-3.7,2.4-9.7,10.9-23.3c1.8-3,4.1-6.5,5.7-9.4c-7.9,4-23.4,15.4-34.8,35.4
			c-0.9,1.6-2.8,2.2-4.5,1.4c-1.6-0.8-2.4-2.7-1.7-4.4c0.5-1.3,12-31.1,20.9-41.4c1.2-1.4,3.4-1.6,4.9-0.4c1.4,1.2,1.6,3.4,0.4,4.9
			c-2.5,2.9-5.4,7.8-8.1,13.1c10.5-10.3,20.6-15.7,25.2-16.8c1.4-0.3,3.3-0.6,5,0.5c3.5,2.3,1,6.9-0.6,9.9c-1.6,3-4,6.8-6.5,10.9
			c-2.6,4.1-6.3,10.2-8.5,14.3c5.7-3.2,16-10.3,26.7-18.2c-3-7.5-3.3-13.2-1.1-17.4c1.4-2.5,4.4-5.7,11.1-6.3
			c6-0.5,11.2,2.4,12.8,7.2c1.4,4.2-0.4,8.7-4.7,11.4c-0.8,0.6-4.5,3.5-9.6,7.3c0.4,0.9,0.9,1.8,1.5,2.8c0.5,0.9,1,1.8,1.5,2.6
			c12.3-4.8,26.9-8.2,42.3-9.9c10.4-1.1,21.7-1.4,32.6-1.7c33.9-0.8,65.9-1.6,67.8-25.8c0.1-1.9,1.8-3.3,3.7-3.2
			c1.9,0.1,3.3,1.8,3.2,3.7c-2.3,30.4-39,31.3-74.5,32.2c-10.8,0.3-22,0.5-32.1,1.6c-14.6,1.6-27.9,4.7-39.1,8.9
			c2.2,3,4.6,5.9,6.9,8.8c9,11,17.5,21.3,13.9,36.5c-1.5,6.3-5.7,11.6-12.1,15.4C698.7,369.1,692.2,370.9,686.4,370.9z M688.7,308
			c-15.9,7.2-26.2,16.7-27.4,26.8c-2.1,17.5,12.8,26.4,20.9,28.6c4.2,1.2,11.9,0.4,18.3-3.4c3.3-2,7.6-5.5,8.9-11.1
			c2.8-11.8-4-20.1-12.6-30.5C694.1,315.1,691.3,311.7,688.7,308z M691.2,275c-0.3,0-0.6,0-0.8,0c-2.9,0.3-4.8,1.2-5.6,2.7
			c-0.7,1.3-1.2,4.1,0.8,9.9c2.8-2.1,5.6-4.2,8.3-6.3c0.1-0.1,0.2-0.1,0.3-0.2c1-0.6,2.5-1.8,2-3.5C695.6,276.2,694,275,691.2,275z"
			/>
		<path class="st20" d="M266.1,388.3c-10.7,0-18.9-5.2-23-12c-6.3-10.4-3.2-23.3,7.5-31.3c8.3-6.2,18.2-8.6,28.6-11
			c13.4-3.2,27.2-6.4,39.5-18.3c0.4-4.4,0.6-9,0.7-13.9c-4,7-9.5,14.5-16,16.8c-3.4,1.2-6.9,0.9-10.1-0.9c-1.8-1-4.8-3.6-4.5-9.4
			c0.7-12.1,16.3-33,25.6-37c5.7-2.5,10.6-2.4,14.5,0.2c7.5,5.1,7.4,17.5,7.4,18.9c0,1.9-1.6,3.4-3.5,3.4c-1.9,0-3.4-1.6-3.4-3.5
			l0,0c0.1-2.6-0.6-10.6-4.3-13.1c-1.8-1.2-4.5-1.1-7.9,0.4c-7.3,3.2-21,21.7-21.5,31.1c-0.1,2.4,0.7,2.9,1,3
			c1.4,0.8,2.8,0.9,4.4,0.4c7.8-2.8,15.8-19.8,18.2-26.1c0.6-1.5,2.1-2.4,3.8-2.2c1.6,0.3,2.8,1.6,2.9,3.2
			c0.3,6.3,0.5,13.2,0.3,20.2c10.6-13.1,15.8-24.2,17.5-37.2c0.2-1.8,1.9-3.1,3.7-3c1.8,0.2,3.2,1.8,3.1,3.6
			c-0.1,1.3,0.1,2.2,0.6,2.7c1.1,1.2,4.2,1.3,6.5,1.4c3,0.1,5.8,0.3,7.3,2.5c1.8,2.5,0.6,5.5-3.8,15.7c-1.9,4.5-5.7,13.3-6.3,17.3
			c3.4-2.4,9.8-10.7,15.2-19.6c1-1.6,3.1-2.2,4.7-1.2c1.6,1,2.2,3.1,1.2,4.7c-0.2,0.3-3.9,6.4-8.3,12.2
			c-7.4,9.7-12.4,12.9-16.7,10.8c-6.3-3.2-1.8-13.7,3.9-27c1.2-2.8,2.7-6.3,3.5-8.5c-0.3,0-0.7,0-1,0c-2.6-0.1-5.8-0.3-8.6-1.6
			c-3.2,12.1-9.7,23.1-21,36.1c-0.8,0.9-1.6,1.8-2.4,2.6c-2.8,25.3-12.7,51.3-41.5,65.2C277.4,387,271.4,388.3,266.1,388.3z
			 M317.3,325.9c-12.1,9.1-24.9,12.1-36.6,14.9c-9.7,2.3-18.8,4.4-26,9.8c-9.1,6.8-9.4,16.1-5.7,22.2c4.7,7.8,16.4,12.3,31.8,4.9
			C301.1,368,312.9,351.5,317.3,325.9z"/>
		<path class="st20" d="M394.3,319c-0.7,0-1.3-0.1-1.9-0.3c-2-0.6-3.5-1.9-4.3-3.7c-0.6-1.3-0.8-2.9-0.7-4.9
			c-6.4,7-11.9,9.7-16.8,8.3c-2.3-0.7-4.1-2.3-5.1-4.7c-2.1-4.9-0.8-12.3,3.7-20.9c6.5-12.5,15.8-20.3,24.4-20.4
			c4.7,0,8.7,2.3,10.9,6.4c0.9,1.7,0.3,3.8-1.4,4.7c-0.6,0.4-1.3,0.5-2,0.4c1.5,0.9,2.2,2.8,1.4,4.4c-8.2,17.6-8.7,22.4-8.2,23.7
			c0,0,0,0,0,0c0,0,3.4,0.1,12.7-12.7c5.1-7,9.3-14.3,9.3-14.3c1-1.6,3.1-2.2,4.7-1.3c1.6,1,2.2,3.1,1.3,4.7
			c-0.2,0.3-4.6,8-10.2,15.5C404.6,314.2,399,319,394.3,319z M394.3,312L394.3,312L394.3,312z M393.8,279.3
			C393.7,279.3,393.7,279.3,393.8,279.3c-4.6,0.1-12.1,4.5-18.5,16.7c-4,7.7-4.4,12.9-3.5,15c0.3,0.7,0.6,0.8,0.7,0.8
			c4.8,1.4,16.3-12.6,23.9-26.6c0.7-1.3,2-1.9,3.4-1.8c-0.5-0.3-1-0.8-1.3-1.3C397.4,280.3,395.9,279.3,393.8,279.3z"/>
		<path class="st20" d="M530.2,319c-0.7,0-1.3-0.1-1.9-0.3c-2-0.6-3.5-1.9-4.3-3.7c-0.6-1.3-0.8-2.9-0.7-4.9
			c-6.4,7-11.9,9.7-16.8,8.3c-2.3-0.7-4.1-2.3-5.1-4.7c-2.1-4.9-0.8-12.3,3.7-20.9c6.5-12.5,15.8-20.3,24.4-20.4c0.1,0,0.1,0,0.2,0
			c4.6,0,8.5,2.3,10.8,6.4c0.9,1.7,0.3,3.8-1.4,4.7c-0.6,0.4-1.3,0.5-2,0.4c1.5,0.9,2.2,2.8,1.4,4.4c-8.2,17.6-8.7,22.4-8.2,23.7
			c0,0,0,0,0,0c0,0,3.3,0,12.3-13c4.9-7.1,8.9-14.4,8.9-14.4c0.9-1.7,3-2.3,4.7-1.4c1.7,0.9,2.3,3,1.4,4.7
			c-0.2,0.3-4.4,8.1-9.8,15.7C540.4,314.1,534.9,319,530.2,319z M529.6,279.3C529.6,279.3,529.6,279.3,529.6,279.3
			c-4.6,0.1-12.1,4.5-18.5,16.7c-4,7.7-4.4,12.9-3.5,15c0.3,0.7,0.6,0.8,0.7,0.8c4.9,1.4,16.3-12.6,23.9-26.6c0.7-1.3,2-1.9,3.4-1.8
			c-0.5-0.3-1-0.8-1.3-1.3C533.3,280.3,531.7,279.3,529.6,279.3z"/>
		<path class="st20" d="M443.1,318.6c-0.2,0-0.3,0-0.5,0c-4.5-0.3-6.6-2.4-7.6-4.1c-0.8-1.5-1.3-3.2-1.2-5.5
			c-6.9,8.1-12.2,10.9-16.8,8.8c-3.1-1.4-4.8-4.5-5.3-9.3c-0.4-4.5,0.4-10.7,2.1-18c0-0.4,0.1-0.7,0.3-1.1
			c8.3-34.3,35.5-90.7,48.3-99.7c3.1-2.2,5.5-1.9,7-1.2c1.9,0.9,4.1,3,4.3,8.3c0.3,12.1-9.8,35.3-18.5,51.5
			c-5.8,10.7-20.4,35.9-34.9,44.6c-0.8,3.6-1.4,6.8-1.6,9.6c-0.6,6.4,0.5,8.7,1.2,9c0,0,3.9,0.5,14.7-14.9
			c6.3-9.2,11.6-19,11.7-19.1c0.9-1.7,3-2.3,4.6-1.4c1.7,0.9,2.3,2.9,1.5,4.6c-3.4,6.5-13.6,26.4-11.4,30.4c0.3,0.5,1.5,0.6,2,0.6
			c0.1,0,4.1,0,15.1-17.4c5.9-9.4,10.7-19.1,10.8-19.1c0.8-1.7,2.9-2.4,4.5-1.6c1.7,0.8,2.4,2.8,1.7,4.5
			c-10.4,23.7-10.6,30.7-10.2,32.7c3.5-2.6,11.4-13.3,17.4-22.9c1-1.6,3.1-2.1,4.8-1.1c1.6,1,2.1,3.1,1.1,4.8
			c-0.2,0.3-4.3,6.8-9,13.2c-9.1,12.3-12.9,14.2-16.1,13.2c-1.9-0.6-3.3-1.9-4.2-3.7c-0.7-1.6-1.2-3.8-0.7-7.7
			C450.6,316.8,446.2,318.6,443.1,318.6z M466.7,195.2c-3.8,2.3-13.6,16.1-26,42.6c-7.3,15.7-13.4,31.2-17.3,44.1
			c17.6-17,38.7-58.5,42.8-78.6C467.2,198.3,466.9,196.1,466.7,195.2z"/>
		<path class="st20" d="M575.4,318.7c-0.3,0-0.6,0-0.9-0.1c-1.9-0.3-3.4-1.5-4.3-3.2c-0.6-1.3-1-3-0.7-6.1
			c-6.8,7.9-12,10.6-16.5,8.5c-3.1-1.4-4.8-4.5-5.3-9.3c-0.4-4.2,0.3-10,1.8-16.7c0-0.4,0.1-0.7,0.2-1.1c8-34.1,35.7-91.9,48.7-101
			c3.1-2.2,5.5-1.9,7-1.2c1.7,0.8,3.8,2.7,4.2,7.2c0.8,11-9,33.7-18.4,51.2c-12,22.3-25,39.7-35.1,47.1c-0.7,3.2-1.2,6-1.4,8.5
			c-0.6,6.4,0.5,8.7,1.2,9c0,0,3.9,0.5,14.7-14.9c6.3-9.2,11.6-19,11.7-19.1c0.9-1.7,3-2.3,4.6-1.4c1.7,0.9,2.3,2.9,1.5,4.6
			c-10.5,20.4-12,27.9-12.1,30.5c3.8-2.6,12.1-13.1,18.3-22.6c1.1-1.6,3.2-2,4.8-1c1.6,1.1,2,3.2,1,4.8c-0.2,0.3-4.4,6.6-9.3,12.9
			C582.7,316,578.6,318.7,575.4,318.7z M575.2,311.8L575.2,311.8L575.2,311.8z M602.6,195.2c-3.8,2.3-13.6,16.1-26,42.6
			c-7.3,15.7-13.4,31.2-17.3,44c17.8-19.2,39.9-61.3,43.1-81.1C603,197.6,602.8,195.9,602.6,195.2z"/>
		<path class="st20" d="M488.3,318.6c-1.2,0-2.4-0.2-3.5-0.8c-3.1-1.4-4.8-4.5-5.3-9.3c-0.5-4.9,0.6-12,2.7-20.3
			c0-0.4,0.1-0.7,0.3-1.1c9-34.5,35.2-88.6,47.8-97.4c3.1-2.2,5.5-1.9,7-1.2c1.4,0.7,3.3,2.1,3.9,5.3c1.9,9.3-8.7,30.5-18,46.6
			c-10.8,18.8-24.5,38.6-34.3,49.7c-1.2,4.8-2,9-2.3,12.4c-0.6,6.4,0.5,8.7,1.2,9c3.7,1.7,13.3-10.4,19.5-22.3
			c0.9-1.7,3-2.4,4.6-1.5c1.7,0.9,2.4,2.9,1.5,4.6c-0.2,0.3-3.8,7.4-8.7,14C502.1,309.6,495.5,318.6,488.3,318.6z M534.3,195.2
			c-3.7,2.2-13.6,16-26,42.6c-5.5,11.9-10.3,23.7-14,34.2c8.1-11.1,17.1-25,24.4-38C533.3,208.2,535,197.7,534.3,195.2z"/>
		<path class="st20" d="M473.6,262.3c-0.7,0-1.5-0.2-2.1-0.7c-14.5-11.3-62.2-7.8-104.3-4.8c-30,2.2-58.3,4.2-77.3,1.8
			c-20-2.6-27.2-9.9-29.7-15.6c-2.6-5.8-1.6-12.7,2.7-18.8c4.5-6.4,16.5-13.8,27.4-11c6.9,1.8,15.5,8.2,17.6,28.8
			c0.2,1.9-1.2,3.6-3.1,3.8c-1.9,0.2-3.6-1.2-3.8-3.1c-0.9-9.2-3.9-20.6-12.5-22.8c-7.4-1.9-16.8,3.6-20,8.3
			c-2.9,4.1-3.6,8.5-2,12.1c2.6,5.8,11.2,9.9,24.3,11.6c18.3,2.3,46.3,0.3,75.9-1.8c47.5-3.4,92.4-6.7,109,6.2
			c1.5,1.2,1.8,3.3,0.6,4.8C475.7,261.8,474.6,262.3,473.6,262.3z"/>
		<path class="st20" d="M623.8,262.3c-0.8,0-1.6-0.3-2.2-0.8c-6.8-5.8-28.9-4.2-46.7-3c-24.4,1.7-39.6,2.4-44.2-5.2
			c-1-1.6-0.5-3.7,1.1-4.7c1.6-1,3.7-0.5,4.7,1.1c2.7,4.4,23,2.9,37.8,1.9c21-1.5,42.7-3,51.7,4.6c1.4,1.2,1.6,3.4,0.4,4.9
			C625.7,261.8,624.7,262.3,623.8,262.3z"/>
		<path class="st20" d="M589,275.4c-0.5,0-1-0.1-1.5-0.3c-1.7-0.8-2.4-2.9-1.6-4.6l2.3-4.8c0.8-1.7,2.9-2.4,4.6-1.6
			c1.7,0.8,2.4,2.9,1.6,4.6l-2.3,4.8C591.5,274.6,590.3,275.4,589,275.4z"/>
		<path class="st20" d="M241.5,290.6c-0.3,0-0.5,0-0.8,0c-2.6-0.1-4.6-0.9-6.2-2.3c-1.4-1.3-2.3-3.1-2.6-5.1c-0.4-3.1,0.7-6.1,3.1-8
			c2.7-2.3,6.6-2.1,9-1.3c1.8,0.6,2.8,2.5,2.2,4.4c-0.6,1.8-2.5,2.8-4.4,2.2c-1-0.3-2.1-0.2-2.4,0.1c-0.3,0.3-0.8,0.8-0.6,1.8
			c0,0.4,0.2,0.7,0.4,0.9c0.3,0.3,1,0.5,1.9,0.5c2.9,0.1,6-1.1,8.7-2.3c1.1-0.5,2.2-1,3.3-1.4c4.7-2.1,9.6-4.2,13.6-6.8
			c1.6-1,3.7-0.6,4.8,1c1,1.6,0.6,3.7-1,4.8c-4.4,2.9-9.6,5.1-14.6,7.3c-1.1,0.5-2.2,0.9-3.2,1.4
			C249.4,289.1,245.7,290.6,241.5,290.6z"/>
		<path class="st20" d="M616.9,290.6c-0.3,0-0.5,0-0.8,0c-2.6-0.1-4.6-0.9-6.2-2.3c-1.4-1.3-2.3-3.1-2.6-5.1c-0.4-3.1,0.7-6.1,3.1-8
			c2.7-2.2,6.7-2.3,9.3-1.5c1.8,0.6,2.8,2.5,2.2,4.4c-0.6,1.8-2.5,2.8-4.4,2.2c-1-0.3-2.3-0.1-2.7,0.2c-0.3,0.3-0.8,0.8-0.6,1.8
			c0,0.4,0.2,0.7,0.4,0.9c0.3,0.3,1,0.5,1.9,0.5c2.9,0.1,6-1.1,8.7-2.3c1.1-0.5,2.2-1,3.3-1.4c4.7-2.1,9.6-4.2,13.6-6.8
			c1.6-1,3.7-0.6,4.8,1c1,1.6,0.6,3.7-1,4.8c-4.4,2.9-9.6,5.1-14.6,7.3c-1.1,0.5-2.2,0.9-3.2,1.4
			C624.5,289.2,620.8,290.6,616.9,290.6z"/>
	</g>
</g>
</svg>
